<svg width="22" height="22" viewBox="0 0 22 22" fill="none" xmlns="http://www.w3.org/2000/svg">
<line x1="21" y1="21" x2="21" y2="1" stroke="white" stroke-width="2" stroke-linecap="round"/>
<line x1="1" y1="1" x2="21" y2="0.999996" stroke="white" stroke-width="2" stroke-linecap="round"/>
<path fill-rule="evenodd" clip-rule="evenodd" d="M13.7386 2C13.8419 2.42656 13.9783 2.84546 14.147 3.25281C14.5742 4.28408 15.2003 5.22111 15.9896 6.01041C16.7789 6.79971 17.7159 7.42581 18.7472 7.85298C19.1545 8.0217 19.5734 8.15809 20 8.26136L20 2L13.7386 2ZM11.6922 2C11.5647 1.34259 11.5 0.672901 11.5 -9.17939e-07L21 1.5L22 10.5C21.3271 10.5 20.6574 10.4353 20 10.3078C19.3103 10.1739 18.6341 9.9709 17.9818 9.70073C16.7079 9.17306 15.5504 8.39964 14.5754 7.42462C13.6004 6.44961 12.8269 5.29209 12.2993 4.01818C12.0291 3.36594 11.8261 2.68972 11.6922 2Z" fill="white"/>
</svg>
