<svg width="25" height="25" viewBox="0 0 25 25" fill="none" xmlns="http://www.w3.org/2000/svg">
<rect x="4.77771" y="18.3849" width="16.2107" height="3.0395" rx="1" transform="rotate(-45 4.77771 18.3849)" fill="#7467C8"/>
<circle cx="18.7478" cy="6.5641" r="3.05267" transform="rotate(45 18.7478 6.5641)" stroke="#7467C8" stroke-width="2"/>
<path fill-rule="evenodd" clip-rule="evenodd" d="M12.6489 7.62941C12.2584 7.23888 11.6252 7.23888 11.2347 7.62941L1.89326 16.9708C1.11221 17.7519 1.11221 19.0182 1.89326 19.7992L5.51259 23.4186C6.29364 24.1996 7.55997 24.1996 8.34102 23.4186L17.6824 14.0772C18.0729 13.6866 18.0729 13.0535 17.6824 12.663V12.663C17.2919 12.2724 16.6587 12.2724 16.2682 12.663L7.63391 21.2973C7.24339 21.6878 6.61022 21.6878 6.2197 21.2973L4.01458 19.0921C3.62406 18.7016 3.62406 18.0684 4.01458 17.6779L12.6489 9.04362C13.0394 8.6531 13.0394 8.01993 12.6489 7.62941V7.62941Z" fill="#7467C8"/>
</svg>
