<svg width="24" height="21" viewBox="0 0 24 21" fill="none" xmlns="http://www.w3.org/2000/svg">
<path d="M20.7273 7.63636V5.45455C20.7273 4.25455 19.7455 3.27273 18.5455 3.27273H15.2727C15.2727 1.46182 13.8109 0 12 0C10.1891 0 8.72727 1.46182 8.72727 3.27273H5.45455C4.25455 3.27273 3.27273 4.25455 3.27273 5.45455V7.63636C1.46182 7.63636 0 9.09818 0 10.9091C0 12.72 1.46182 14.1818 3.27273 14.1818V18.5455C3.27273 19.7455 4.25455 20.7273 5.45455 20.7273H18.5455C19.7455 20.7273 20.7273 19.7455 20.7273 18.5455V14.1818C22.5382 14.1818 24 12.72 24 10.9091C24 9.09818 22.5382 7.63636 20.7273 7.63636ZM18.5455 18.5455H5.45455V5.45455H18.5455V18.5455ZM8.72727 12C7.82182 12 7.09091 11.2691 7.09091 10.3636C7.09091 9.45818 7.82182 8.72727 8.72727 8.72727C9.63273 8.72727 10.3636 9.45818 10.3636 10.3636C10.3636 11.2691 9.63273 12 8.72727 12ZM16.9091 10.3636C16.9091 11.2691 16.1782 12 15.2727 12C14.3673 12 13.6364 11.2691 13.6364 10.3636C13.6364 9.45818 14.3673 8.72727 15.2727 8.72727C16.1782 8.72727 16.9091 9.45818 16.9091 10.3636ZM7.63636 14.1818H16.3636V16.3636H7.63636V14.1818Z" fill="#F9886A"/>
</svg>
