<svg width="24" height="17" viewBox="0 0 24 17" fill="none" xmlns="http://www.w3.org/2000/svg">
<path d="M6.912 13.572C5.604 12.276 4.8 10.476 4.8 8.484C4.8 6.492 5.604 4.692 6.912 3.396L8.616 5.1C7.74 5.964 7.2 7.164 7.2 8.484C7.2 9.804 7.74 11.004 8.604 11.88L6.912 13.572ZM17.088 13.572C18.396 12.276 19.2 10.476 19.2 8.484C19.2 6.492 18.396 4.692 17.088 3.396L15.384 5.1C16.26 5.964 16.8 7.164 16.8 8.484C16.8 9.804 16.26 11.004 15.396 11.88L17.088 13.572ZM12 6.084C10.68 6.084 9.6 7.164 9.6 8.484C9.6 9.804 10.68 10.884 12 10.884C13.32 10.884 14.4 9.804 14.4 8.484C14.4 7.164 13.32 6.084 12 6.084ZM21.6 8.484C21.6 11.136 20.52 13.536 18.78 15.264L20.484 16.968C22.656 14.796 24 11.796 24 8.484C24 5.172 22.656 2.172 20.484 0L18.78 1.704C20.52 3.432 21.6 5.832 21.6 8.484ZM5.22 1.704L3.516 0C1.344 2.172 0 5.172 0 8.484C0 11.796 1.344 14.796 3.516 16.968L5.22 15.264C3.48 13.536 2.4 11.136 2.4 8.484C2.4 5.832 3.48 3.432 5.22 1.704Z" fill="#1DD1A1"/>
</svg>
