<svg width="17" height="17" viewBox="0 0 17 17" fill="none" xmlns="http://www.w3.org/2000/svg">
<path d="M8.5 0C3.808 0 0 3.808 0 8.5C0 13.192 3.808 17 8.5 17C13.192 17 17 13.192 17 8.5C17 3.808 13.192 0 8.5 0ZM1.7 8.5C1.7 7.9815 1.768 7.4715 1.8785 6.987L5.9415 11.05V11.9C5.9415 12.835 6.7065 13.6 7.6415 13.6V15.2405C4.301 14.8155 1.7 11.9595 1.7 8.5ZM13.5065 13.09C13.2855 12.4015 12.6565 11.9 11.8915 11.9H11.0415V9.35C11.0415 8.8825 10.659 8.5 10.1915 8.5H5.0915V6.8H6.7915C7.259 6.8 7.6415 6.4175 7.6415 5.95V4.25H9.3415C10.2765 4.25 11.0415 3.485 11.0415 2.55V2.2015C13.532 3.2045 15.3 5.6525 15.3 8.5C15.3 10.268 14.6115 11.883 13.5065 13.09Z" fill="#151825"/>
</svg>
