<svg width="597" height="518" viewBox="0 0 597 518" fill="none" xmlns="http://www.w3.org/2000/svg">
<rect x="5" y="5" width="587" height="508" rx="10" fill="#E5E5E5" stroke="#272735" stroke-width="10"/>
<path fill-rule="evenodd" clip-rule="evenodd" d="M44 194.061V64.5609C44 57.9335 49.4154 52.502 56.0212 53.0363C160.934 61.5228 169.641 181.062 81.5287 205.646C80.5357 205.924 79.4791 206.061 78.4481 206.061H56.0003C49.3729 206.061 44 200.688 44 194.061ZM76.7295 167.874C90.352 173.939 106.312 167.813 112.377 154.19C118.442 140.568 112.316 124.608 98.6933 118.543C96.9565 117.769 95.1816 117.194 93.3941 116.808C91.4958 116.397 90 114.806 90 112.864V112.864C90 111.279 91.0954 109.94 92.2215 108.825C93.3197 107.737 94 106.228 94 104.561C94 101.247 91.3137 98.5609 88 98.5609C84.6863 98.5609 82 101.247 82 104.561C82 106.246 82.6946 107.769 83.8131 108.859C84.9273 109.944 86 111.26 86 112.815V112.815C86 114.751 84.4885 116.328 82.5882 116.697C74.2306 118.319 66.7713 123.859 63.0457 132.227C56.9806 145.849 63.107 161.809 76.7295 167.874ZM93.9169 96.5655C94.0085 97.1101 93.5523 97.5609 93 97.5609H92.84C92.2877 97.5609 91.8528 97.1058 91.7105 96.5721C91.538 95.9246 91.1973 95.3276 90.7153 94.8456C89.9952 94.1255 89.0184 93.7209 88 93.7209C86.9816 93.7209 86.0048 94.1255 85.2847 94.8456C84.8027 95.3276 84.462 95.9246 84.2895 96.5721C84.1472 97.1058 83.7123 97.5609 83.16 97.5609H83C82.4477 97.5609 81.9915 97.1101 82.0831 96.5655C82.2887 95.3434 82.8696 94.206 83.7574 93.3182C84.8826 92.193 86.4087 91.5609 88 91.5609C89.5913 91.5609 91.1174 92.193 92.2426 93.3182C93.1304 94.206 93.7113 95.3434 93.9169 96.5655ZM98.32 96C99.2478 96 100.014 95.2427 99.8606 94.3277C99.4749 92.0294 98.3011 89.8864 96.4853 88.2218C94.2348 86.1589 91.1826 85 88 85C84.8174 85 81.7652 86.1589 79.5147 88.2218C77.6989 89.8864 76.5251 92.0294 76.1394 94.3277C75.9859 95.2427 76.7522 96 77.68 96C78.6078 96 79.3411 95.2381 79.5531 94.3348C79.9002 92.8556 80.7054 91.4861 81.8906 90.3997C83.5109 88.9144 85.7085 88.08 88 88.08C90.2915 88.08 92.4891 88.9144 94.1094 90.3997C95.2946 91.4861 96.0998 92.8556 96.4469 94.3348C96.6589 95.2381 97.3922 96 98.32 96Z" fill="#272735"/>
<path d="M72.8059 177.27C73.4501 178.157 72.8928 179.408 71.8029 179.523L57.9056 180.984C56.8156 181.098 56.0103 179.99 56.4561 178.989L62.1398 166.223C62.5856 165.222 63.948 165.079 64.5923 165.965L72.8059 177.27Z" fill="#F9886A"/>
<path d="M72.3724 177.077C71.2824 177.192 70.7252 178.443 71.3694 179.33L79.583 190.635C80.2272 191.522 81.5897 191.379 82.0354 190.377L87.7191 177.612C88.1649 176.61 87.3596 175.502 86.2697 175.617L72.3724 177.077Z" fill="#F9886A"/>
<path d="M83.4504 138.027C83.9549 138.252 84.555 138.026 84.6928 137.491C84.8055 137.054 84.8687 136.604 84.8806 136.151C84.9012 135.363 84.7665 134.579 84.4841 133.844C84.2018 133.108 83.7773 132.435 83.2349 131.864C82.6925 131.292 82.0429 130.833 81.3231 130.512C80.6033 130.192 79.8274 130.016 79.0397 129.996C78.252 129.975 77.468 130.11 76.7324 130.392C75.9968 130.675 75.3241 131.099 74.7525 131.641C74.4235 131.954 74.1317 132.302 73.8822 132.678C73.577 133.138 73.8104 133.735 74.3149 133.96L75.5384 134.505C76.0429 134.729 76.6247 134.482 77.0188 134.095C77.0295 134.084 77.0403 134.074 77.0511 134.064C77.3046 133.823 77.6029 133.635 77.9291 133.51C78.2553 133.384 78.603 133.325 78.9523 133.334C79.3016 133.343 79.6457 133.421 79.9649 133.563C80.2841 133.705 80.5722 133.909 80.8127 134.162C81.0532 134.416 81.2415 134.714 81.3667 135.04C81.4919 135.366 81.5516 135.714 81.5425 136.063C81.5421 136.078 81.5416 136.093 81.5409 136.108C81.5172 136.66 81.7224 137.258 82.2269 137.483L83.4504 138.027Z" fill="#272735"/>
<path d="M103.548 146.976C104.053 147.2 104.653 146.974 104.791 146.439C104.903 146.002 104.967 145.552 104.978 145.099C104.999 144.311 104.864 143.527 104.582 142.792C104.3 142.056 103.875 141.383 103.333 140.812C102.79 140.24 102.141 139.781 101.421 139.461C100.701 139.14 99.9253 138.965 99.1376 138.944C98.35 138.923 97.5659 139.058 96.8303 139.34C96.0947 139.623 95.422 140.047 94.8504 140.59C94.5214 140.902 94.2296 141.25 93.9801 141.626C93.6749 142.086 93.9083 142.684 94.4128 142.908L95.6363 143.453C96.1408 143.678 96.7226 143.43 97.1167 143.043C97.1274 143.033 97.1382 143.022 97.149 143.012C97.4025 142.771 97.7008 142.583 98.027 142.458C98.3532 142.333 98.7009 142.273 99.0502 142.282C99.3995 142.291 99.7436 142.369 100.063 142.511C100.382 142.653 100.67 142.857 100.911 143.11C101.151 143.364 101.339 143.662 101.465 143.988C101.59 144.315 101.65 144.662 101.64 145.012C101.64 145.027 101.639 145.042 101.639 145.056C101.615 145.608 101.82 146.206 102.325 146.431L103.548 146.976Z" fill="#272735"/>
<path d="M157.6 144.868H158.344C161.485 144.868 163.056 146.397 163.056 149.456V201.288C163.056 204.429 161.485 206 158.344 206H157.6C154.459 206 152.888 204.429 152.888 201.288V149.456C152.888 146.397 154.459 144.868 157.6 144.868ZM151.152 127.384C151.152 125.483 151.813 123.871 153.136 122.548C154.459 121.143 156.029 120.44 157.848 120.44C159.749 120.44 161.361 121.143 162.684 122.548C164.089 123.871 164.792 125.483 164.792 127.384C164.792 129.203 164.131 130.815 162.808 132.22C161.485 133.543 159.873 134.204 157.972 134.204C156.071 134.204 154.459 133.543 153.136 132.22C151.813 130.897 151.152 129.285 151.152 127.384ZM173.313 161.856C173.313 156.235 175.71 151.812 180.505 148.588C185.382 145.281 190.797 143.628 196.749 143.628C202.701 143.628 207.289 144.496 210.513 146.232C213.82 147.885 215.473 149.869 215.473 152.184C215.473 154.499 213.861 156.193 210.637 157.268C210.058 155.945 208.446 154.705 205.801 153.548C203.238 152.391 200.056 151.812 196.253 151.812C192.45 151.812 189.309 152.556 186.829 154.044C184.432 155.449 183.233 157.475 183.233 160.12C183.233 162.683 184.142 164.667 185.961 166.072C187.78 167.477 192.037 168.965 198.733 170.536C205.512 172.024 210.678 174.215 214.233 177.108C217.788 180.001 219.565 184.052 219.565 189.26C219.565 194.468 217.168 198.725 212.373 202.032C207.578 205.256 201.668 206.868 194.641 206.868C187.697 206.868 182.117 206 177.901 204.264C173.768 202.445 171.701 200.089 171.701 197.196C171.701 194.303 173.065 192.195 175.793 190.872C176.95 193.104 179.182 195.005 182.489 196.576C185.796 198.147 189.929 198.932 194.889 198.932C199.849 198.932 203.61 198.023 206.173 196.204C208.818 194.385 210.141 192.153 210.141 189.508C210.141 186.78 208.942 184.672 206.545 183.184C204.23 181.613 199.642 180.084 192.781 178.596C186.002 177.108 181.042 175 177.901 172.272C174.842 169.461 173.313 165.989 173.313 161.856ZM231.704 150.82C234.762 148.423 238.028 146.645 241.5 145.488C244.972 144.331 249.188 143.752 254.148 143.752C259.108 143.752 263.448 144.868 267.168 147.1C270.97 149.332 272.872 151.729 272.872 154.292C272.872 157.433 271.094 159.211 267.54 159.624C266.713 157.805 264.853 156.152 261.96 154.664C259.066 153.093 255.636 152.308 251.668 152.308C246.129 152.308 241.541 154.292 237.904 158.26C234.266 162.145 232.448 167.849 232.448 175.372C232.448 182.895 234.308 188.64 238.028 192.608C241.748 196.576 246.212 198.56 251.42 198.56C259.686 198.56 265.266 195.873 268.16 190.5C269.73 190.5 271.053 190.996 272.128 191.988C273.202 192.897 273.74 194.096 273.74 195.584C273.74 198.477 271.756 201.123 267.788 203.52C263.82 205.835 259.273 206.992 254.148 206.992C249.105 206.992 244.806 206.413 241.252 205.256C237.78 204.016 234.556 202.197 231.58 199.8C228.604 197.32 226.248 194.013 224.512 189.88C222.776 185.747 221.908 180.952 221.908 175.496C221.908 169.957 222.776 165.08 224.512 160.864C226.33 156.565 228.728 153.217 231.704 150.82ZM284.666 152.06C290.535 146.521 297.727 143.752 306.242 143.752C314.757 143.752 321.949 146.521 327.818 152.06C333.687 157.599 336.622 165.411 336.622 175.496C336.622 185.581 333.687 193.352 327.818 198.808C321.949 204.264 314.757 206.992 306.242 206.992C297.727 206.992 290.535 204.264 284.666 198.808C278.797 193.352 275.862 185.581 275.862 175.496C275.862 165.411 278.797 157.599 284.666 152.06ZM320.502 158.384C316.865 154.333 312.111 152.308 306.242 152.308C300.373 152.308 295.578 154.333 291.858 158.384C288.221 162.352 286.402 168.056 286.402 175.496C286.402 182.853 288.221 188.557 291.858 192.608C295.578 196.576 300.373 198.56 306.242 198.56C312.111 198.56 316.865 196.576 320.502 192.608C324.222 188.557 326.082 182.853 326.082 175.496C326.082 168.056 324.222 162.352 320.502 158.384ZM341.857 144.992H344.709C347.355 144.992 348.967 146.273 349.545 148.836C355.001 170.164 360.251 185.912 365.293 196.08H366.781C371.824 185.912 377.073 170.164 382.529 148.836C383.108 146.273 384.72 144.992 387.365 144.992H390.217C392.78 144.992 394.061 145.901 394.061 147.72C394.061 148.216 393.937 148.795 393.689 149.456C387.324 171.197 381.124 188.02 375.089 199.924C374.015 202.073 372.899 203.644 371.741 204.636C370.584 205.545 368.889 206 366.657 206H365.541C363.227 206 361.491 205.545 360.333 204.636C359.176 203.644 358.06 202.073 356.985 199.924C350.951 188.02 344.751 171.197 338.385 149.456C338.137 148.795 338.013 148.216 338.013 147.72C338.013 145.901 339.295 144.992 341.857 144.992ZM395.396 175.62C395.396 165.287 398.29 157.392 404.076 151.936C409.863 146.48 416.518 143.752 424.04 143.752C431.563 143.752 437.515 145.695 441.896 149.58C446.278 153.383 448.468 158.136 448.468 163.84C448.468 169.544 446.195 174.008 441.648 177.232C437.184 180.373 431.398 181.944 424.288 181.944C417.179 181.944 410.772 180.828 405.068 178.596C405.068 184.631 407.135 189.508 411.268 193.228C415.402 196.865 420.444 198.684 426.396 198.684C435.655 198.684 441.442 195.832 443.756 190.128C445.162 190.128 446.36 190.541 447.352 191.368C448.344 192.112 448.84 193.228 448.84 194.716C448.84 197.609 446.691 200.379 442.392 203.024C438.176 205.669 432.803 206.992 426.272 206.992C417.51 206.992 410.152 204.347 404.2 199.056C398.331 193.765 395.396 185.953 395.396 175.62ZM439.044 163.468C439.044 160.244 437.639 157.516 434.828 155.284C432.1 153.052 428.298 151.936 423.42 151.936C418.626 151.936 414.41 153.879 410.772 157.764C407.135 161.649 405.275 166.031 405.192 170.908C411.144 172.892 417.055 173.884 422.924 173.884C433.671 173.884 439.044 170.412 439.044 163.468ZM460.329 144.868H461.073C464.214 144.868 465.785 146.397 465.785 149.456V156.152C467.19 153.011 469.422 150.2 472.481 147.72C475.622 145.24 478.97 144 482.525 144C486.079 144 488.766 144.703 490.585 146.108C492.486 147.513 493.437 149.249 493.437 151.316C493.437 153.3 492.569 154.871 490.833 156.028C488.27 153.879 485.542 152.804 482.649 152.804C477.523 152.804 473.473 154.912 470.497 159.128C467.521 163.261 466.033 168.469 466.033 174.752V201.288C466.033 202.941 465.661 204.14 464.917 204.884C464.173 205.628 462.974 206 461.321 206H460.329C458.675 206 457.477 205.628 456.733 204.884C455.989 204.14 455.617 202.941 455.617 201.288V149.456C455.617 146.397 457.187 144.868 460.329 144.868ZM496.692 144.992H499.048C501.693 144.992 503.305 146.273 503.884 148.836C508.926 168.676 514.506 184.713 520.624 196.948H521.74C528.684 179.836 534.264 163.799 538.48 148.836C539.224 146.273 540.836 144.992 543.316 144.992H545.3C547.862 144.992 549.144 145.901 549.144 147.72C549.144 148.216 549.02 148.795 548.772 149.456C539.182 179.381 528.766 206.248 517.524 230.056C516.862 231.461 516.16 232.453 515.416 233.032C514.754 233.693 513.68 234.024 512.192 234.024H509.092C507.108 234.024 506.116 233.073 506.116 231.172C506.116 230.593 506.57 229.395 507.48 227.576C513.597 215.755 517.193 208.521 518.268 205.876H518.02C516.532 205.628 515.581 205.297 515.168 204.884C514.754 204.388 514.465 204.099 514.3 204.016C514.134 203.851 513.928 203.561 513.68 203.148C513.432 202.652 513.266 202.363 513.184 202.28C513.101 202.115 512.894 201.743 512.564 201.164C512.316 200.503 512.15 200.089 512.068 199.924C505.702 187.193 499.42 170.371 493.22 149.456C492.972 148.795 492.848 148.216 492.848 147.72C492.848 145.901 494.129 144.992 496.692 144.992Z" fill="#272735"/>
<path d="M288.05 233.9C288.05 231.367 289.183 229.2 291.45 227.4C293.717 225.6 296.5 224.7 299.8 224.7C303.133 224.7 305.683 225.117 307.45 225.95C309.217 226.75 310.1 227.75 310.1 228.95C310.1 230.15 309.367 230.9 307.9 231.2C306.633 229.3 304.083 228.35 300.25 228.35C297.983 228.35 296.133 228.883 294.7 229.95C293.267 230.983 292.55 232.25 292.55 233.75C292.55 235.25 293.133 236.4 294.3 237.2C295.467 238 297.167 238.7 299.4 239.3C301.667 239.867 303.4 240.383 304.6 240.85C305.833 241.317 307.067 241.933 308.3 242.7C310.7 244.167 311.9 246.383 311.9 249.35C311.9 252.283 310.7 254.7 308.3 256.6C305.9 258.467 302.9 259.4 299.3 259.4C295.7 259.4 292.883 258.933 290.85 258C288.85 257.033 287.85 255.9 287.85 254.6C287.85 253.267 288.7 252.383 290.4 251.95C291.633 254.45 294.417 255.7 298.75 255.7C301.517 255.7 303.667 255.15 305.2 254.05C306.767 252.917 307.55 251.483 307.55 249.75C307.55 247.983 306.767 246.633 305.2 245.7C303.667 244.767 301.25 243.9 297.95 243.1C294.683 242.267 292.217 241.15 290.55 239.75C288.883 238.35 288.05 236.4 288.05 233.9ZM318.088 234.35H318.388C319.654 234.35 320.288 234.967 320.288 236.2V257.1C320.288 258.367 319.654 259 318.388 259H318.088C316.821 259 316.188 258.367 316.188 257.1V236.2C316.188 234.967 316.821 234.35 318.088 234.35ZM315.488 227.3C315.488 226.533 315.754 225.883 316.288 225.35C316.821 224.783 317.454 224.5 318.188 224.5C318.954 224.5 319.604 224.783 320.138 225.35C320.704 225.883 320.988 226.533 320.988 227.3C320.988 228.033 320.721 228.683 320.188 229.25C319.654 229.783 319.004 230.05 318.238 230.05C317.471 230.05 316.821 229.783 316.288 229.25C315.754 228.717 315.488 228.067 315.488 227.3ZM327.323 234.35H327.623C328.923 234.35 329.573 234.983 329.573 236.25V238.35C331.107 235.45 333.457 234 336.623 234C338.657 234 340.34 234.55 341.673 235.65C343.04 236.717 343.973 238.217 344.473 240.15C345.007 238.217 345.99 236.7 347.423 235.6C348.857 234.5 350.507 233.95 352.373 233.95C358.107 233.95 360.973 237.3 360.973 244V257.15C360.973 258.383 360.307 259 358.973 259H358.673C357.407 259 356.773 258.383 356.773 257.15V244.25C356.773 239.683 355.04 237.4 351.573 237.4C349.14 237.4 347.473 238.283 346.573 240.05C345.707 241.817 345.273 244.217 345.273 247.25V257.15C345.273 258.383 344.623 259 343.323 259H342.973C341.707 259 341.073 258.383 341.073 257.15V244.25C341.073 239.683 339.323 237.4 335.823 237.4C331.657 237.4 329.573 240.633 329.573 247.1V257.15C329.573 258.383 328.923 259 327.623 259H327.323C326.057 259 325.423 258.383 325.423 257.15V236.25C325.423 234.983 326.057 234.35 327.323 234.35ZM366.057 234.4H366.407C367.674 234.4 368.307 235.017 368.307 236.25V249.1C368.307 253.667 370.324 255.95 374.357 255.95C375.891 255.95 377.174 255.5 378.207 254.6C380.074 253 381.007 250.6 381.007 247.4V236.25C381.007 235.017 381.657 234.4 382.957 234.4H383.307C383.974 234.4 384.441 234.55 384.707 234.85C385.007 235.117 385.157 235.583 385.157 236.25V257.15C385.157 257.817 385.007 258.3 384.707 258.6C384.407 258.867 383.924 259 383.257 259H382.957C381.657 259 381.007 258.383 381.007 257.15V254.65C380.541 255.717 379.541 256.783 378.007 257.85C376.507 258.883 374.891 259.4 373.157 259.4C367.157 259.4 364.157 256.05 364.157 249.35V236.25C364.157 235.017 364.791 234.4 366.057 234.4ZM391.887 223.95H392.237C393.504 223.95 394.137 224.567 394.137 225.8V257.1C394.137 258.367 393.504 259 392.237 259H391.887C391.187 259 390.687 258.85 390.387 258.55C390.12 258.25 389.987 257.767 389.987 257.1V225.8C389.987 225.133 390.12 224.667 390.387 224.4C390.687 224.1 391.187 223.95 391.887 223.95ZM407.498 233.95C414.564 233.95 418.098 237.233 418.098 243.8V253.7C418.098 255.533 418.798 256.7 420.198 257.2C419.698 258.467 418.764 259.1 417.398 259.1C416.398 259.1 415.598 258.75 414.998 258.05C414.431 257.317 414.148 256.367 414.148 255.2C412.048 258 409.331 259.4 405.998 259.4C403.298 259.4 401.164 258.717 399.598 257.35C398.064 255.95 397.298 254.083 397.298 251.75C397.298 249.383 398.198 247.467 399.998 246C401.831 244.533 404.298 243.8 407.398 243.8C409.264 243.8 410.831 244 412.098 244.4C413.131 244.767 413.748 245 413.948 245.1V242.9C413.948 240.867 413.431 239.433 412.398 238.6C411.364 237.733 409.798 237.3 407.698 237.3C404.731 237.3 402.431 238.433 400.798 240.7C399.398 240.5 398.698 239.85 398.698 238.75C398.698 237.483 399.564 236.367 401.298 235.4C403.031 234.433 405.098 233.95 407.498 233.95ZM413.948 248.3C411.848 247.367 409.781 246.9 407.748 246.9C405.714 246.9 404.148 247.333 403.048 248.2C401.948 249.067 401.398 250.2 401.398 251.6C401.398 252.967 401.864 254.067 402.798 254.9C403.764 255.7 405.164 256.1 406.998 256.1C408.864 256.1 410.481 255.433 411.848 254.1C413.248 252.767 413.948 251.15 413.948 249.25V248.3ZM426.507 227.7H426.857C428.123 227.7 428.757 228.317 428.757 229.55V234.5H435.657C436.957 234.5 437.607 235.067 437.607 236.2C437.607 237.333 436.957 237.9 435.657 237.9H428.757V250.5C428.757 252.6 429.157 254.083 429.957 254.95C430.79 255.783 431.99 256.2 433.557 256.2C435.157 256.2 436.34 255.817 437.107 255.05C437.94 255.317 438.357 255.85 438.357 256.65C438.357 257.45 437.807 258.117 436.707 258.65C435.607 259.15 434.29 259.4 432.757 259.4C427.323 259.4 424.607 256.433 424.607 250.5V237.9H422.157C421.423 237.9 420.89 237.783 420.557 237.55C420.223 237.317 420.057 236.867 420.057 236.2C420.057 235.067 420.757 234.5 422.157 234.5H424.607V229.55C424.607 228.317 425.24 227.7 426.507 227.7ZM441.525 237.25C443.892 235.017 446.792 233.9 450.225 233.9C453.658 233.9 456.558 235.017 458.925 237.25C461.292 239.483 462.475 242.633 462.475 246.7C462.475 250.767 461.292 253.9 458.925 256.1C456.558 258.3 453.658 259.4 450.225 259.4C446.792 259.4 443.892 258.3 441.525 256.1C439.158 253.9 437.975 250.767 437.975 246.7C437.975 242.633 439.158 239.483 441.525 237.25ZM455.975 239.8C454.508 238.167 452.592 237.35 450.225 237.35C447.858 237.35 445.925 238.167 444.425 239.8C442.958 241.4 442.225 243.7 442.225 246.7C442.225 249.667 442.958 251.967 444.425 253.6C445.925 255.2 447.858 256 450.225 256C452.592 256 454.508 255.2 455.975 253.6C457.475 251.967 458.225 249.667 458.225 246.7C458.225 243.7 457.475 241.4 455.975 239.8ZM467.136 234.35H467.436C468.703 234.35 469.336 234.967 469.336 236.2V238.9C469.903 237.633 470.803 236.5 472.036 235.5C473.303 234.5 474.653 234 476.086 234C477.519 234 478.603 234.283 479.336 234.85C480.103 235.417 480.486 236.117 480.486 236.95C480.486 237.75 480.136 238.383 479.436 238.85C478.403 237.983 477.303 237.55 476.136 237.55C474.069 237.55 472.436 238.4 471.236 240.1C470.036 241.767 469.436 243.867 469.436 246.4V257.1C469.436 257.767 469.286 258.25 468.986 258.55C468.686 258.85 468.203 259 467.536 259H467.136C466.469 259 465.986 258.85 465.686 258.55C465.386 258.25 465.236 257.767 465.236 257.1V236.2C465.236 234.967 465.869 234.35 467.136 234.35Z" fill="#272735"/>
<path d="M537.96 487.975C537.96 487.365 538.245 486.83 538.815 486.37C539.385 485.91 540.17 485.68 541.17 485.68C542.17 485.68 542.945 485.945 543.495 486.475C544.045 486.995 544.32 487.64 544.32 488.41C544.32 489.18 544.065 489.895 543.555 490.555C543.045 491.205 541.905 492.39 540.135 494.11C539.795 494.44 539.535 494.695 539.355 494.875H543.93C544.35 494.875 544.56 495.065 544.56 495.445C544.56 495.815 544.35 496 543.93 496H538.365C537.955 496 537.75 495.785 537.75 495.355C537.75 494.995 537.91 494.695 538.23 494.455C540.21 492.575 541.515 491.27 542.145 490.54C542.775 489.8 543.09 489.16 543.09 488.62C543.09 488.07 542.9 487.635 542.52 487.315C542.15 486.985 541.635 486.82 540.975 486.82C540.325 486.82 539.815 487.02 539.445 487.42C539.075 487.82 538.86 488.245 538.8 488.695C538.24 488.695 537.96 488.455 537.96 487.975ZM546.535 487.03C547.345 486.13 548.37 485.68 549.61 485.68C550.85 485.68 551.87 486.13 552.67 487.03C553.47 487.92 553.87 489.2 553.87 490.87C553.87 492.53 553.465 493.82 552.655 494.74C551.855 495.66 550.84 496.12 549.61 496.12C548.38 496.12 547.355 495.66 546.535 494.74C545.725 493.82 545.32 492.53 545.32 490.87C545.32 489.21 545.725 487.93 546.535 487.03ZM552.46 490.915C552.46 489.635 552.185 488.64 551.635 487.93C551.095 487.21 550.415 486.85 549.595 486.85C548.775 486.85 548.095 487.21 547.555 487.93C547.025 488.64 546.76 489.635 546.76 490.915C546.76 492.185 547.01 493.18 547.51 493.9C548.01 494.61 548.705 494.965 549.595 494.965C550.495 494.965 551.195 494.61 551.695 493.9C552.205 493.18 552.46 492.185 552.46 490.915ZM554.837 487.975C554.837 487.365 555.122 486.83 555.692 486.37C556.262 485.91 557.047 485.68 558.047 485.68C559.047 485.68 559.822 485.945 560.372 486.475C560.922 486.995 561.197 487.64 561.197 488.41C561.197 489.18 560.942 489.895 560.432 490.555C559.922 491.205 558.782 492.39 557.012 494.11C556.672 494.44 556.412 494.695 556.232 494.875H560.807C561.227 494.875 561.437 495.065 561.437 495.445C561.437 495.815 561.227 496 560.807 496H555.242C554.832 496 554.627 495.785 554.627 495.355C554.627 494.995 554.787 494.695 555.107 494.455C557.087 492.575 558.392 491.27 559.022 490.54C559.652 489.8 559.967 489.16 559.967 488.62C559.967 488.07 559.777 487.635 559.397 487.315C559.027 486.985 558.512 486.82 557.852 486.82C557.202 486.82 556.692 487.02 556.322 487.42C555.952 487.82 555.737 488.245 555.677 488.695C555.117 488.695 554.837 488.455 554.837 487.975ZM562.257 487.975C562.257 487.365 562.542 486.83 563.112 486.37C563.682 485.91 564.467 485.68 565.467 485.68C566.467 485.68 567.242 485.945 567.792 486.475C568.342 486.995 568.617 487.64 568.617 488.41C568.617 489.18 568.362 489.895 567.852 490.555C567.342 491.205 566.202 492.39 564.432 494.11C564.092 494.44 563.832 494.695 563.652 494.875H568.227C568.647 494.875 568.857 495.065 568.857 495.445C568.857 495.815 568.647 496 568.227 496H562.662C562.252 496 562.047 495.785 562.047 495.355C562.047 494.995 562.207 494.695 562.527 494.455C564.507 492.575 565.812 491.27 566.442 490.54C567.072 489.8 567.387 489.16 567.387 488.62C567.387 488.07 567.197 487.635 566.817 487.315C566.447 486.985 565.932 486.82 565.272 486.82C564.622 486.82 564.112 487.02 563.742 487.42C563.372 487.82 563.157 488.245 563.097 488.695C562.537 488.695 562.257 488.455 562.257 487.975Z" fill="#272735"/>
<path d="M64 419C64 417.9 63.1 417 62 417H46C44.9 417 44 417.9 44 419V431C44 432.1 44.9 433 46 433H62C63.1 433 64 432.1 64 431V419ZM62 419L54 424L46 419H62ZM62 431H46V421L54 426L62 421V431Z" fill="#F9886A"/>
<path d="M52.08 329.86C52.13 329.53 52.24 329.24 52.38 328.99C52.52 328.74 52.72 328.53 52.97 328.37C53.21 328.22 53.51 328.15 53.88 328.14C54.11 328.15 54.32 328.19 54.51 328.27C54.71 328.36 54.89 328.48 55.03 328.63C55.17 328.78 55.28 328.96 55.37 329.16C55.46 329.36 55.5 329.58 55.51 329.8H57.3C57.28 329.33 57.19 328.9 57.02 328.51C56.85 328.12 56.62 327.78 56.32 327.5C56.02 327.22 55.66 327 55.24 326.84C54.82 326.68 54.36 326.61 53.85 326.61C53.2 326.61 52.63 326.72 52.15 326.95C51.67 327.18 51.27 327.48 50.95 327.87C50.63 328.26 50.39 328.71 50.24 329.23C50.09 329.75 50 330.29 50 330.87V331.14C50 331.72 50.08 332.26 50.23 332.78C50.38 333.3 50.62 333.75 50.94 334.13C51.26 334.51 51.66 334.82 52.14 335.04C52.62 335.26 53.19 335.38 53.84 335.38C54.31 335.38 54.75 335.3 55.16 335.15C55.57 335 55.93 334.79 56.24 334.52C56.55 334.25 56.8 333.94 56.98 333.58C57.16 333.22 57.27 332.84 57.28 332.43H55.49C55.48 332.64 55.43 332.83 55.34 333.01C55.25 333.19 55.13 333.34 54.98 333.47C54.83 333.6 54.66 333.7 54.46 333.77C54.27 333.84 54.07 333.86 53.86 333.87C53.5 333.86 53.2 333.79 52.97 333.64C52.72 333.48 52.52 333.27 52.38 333.02C52.24 332.77 52.13 332.47 52.08 332.14C52.03 331.81 52 331.47 52 331.14V330.87C52 330.52 52.03 330.19 52.08 329.86V329.86ZM54 321C48.48 321 44 325.48 44 331C44 336.52 48.48 341 54 341C59.52 341 64 336.52 64 331C64 325.48 59.52 321 54 321ZM54 339C49.59 339 46 335.41 46 331C46 326.59 49.59 323 54 323C58.41 323 62 326.59 62 331C62 335.41 58.41 339 54 339Z" fill="#F9886A"/>
<path d="M75.8 323.42H75.98C76.5 323.42 76.76 323.673 76.76 324.18V335.5H82.92C83.4267 335.5 83.68 335.753 83.68 336.26C83.68 336.753 83.4267 337 82.92 337H75.8C75.28 337 75.02 336.747 75.02 336.24V324.18C75.02 323.673 75.28 323.42 75.8 323.42ZM84.0267 332.1C84.0267 330.433 84.4934 329.16 85.4267 328.28C86.3601 327.4 87.4334 326.96 88.6467 326.96C89.8601 326.96 90.8201 327.273 91.5267 327.9C92.2334 328.513 92.5867 329.28 92.5867 330.2C92.5867 331.12 92.2201 331.84 91.4867 332.36C90.7667 332.867 89.8334 333.12 88.6867 333.12C87.5401 333.12 86.5067 332.94 85.5867 332.58C85.5867 333.553 85.9201 334.34 86.5867 334.94C87.2534 335.527 88.0667 335.82 89.0267 335.82C90.5201 335.82 91.4534 335.36 91.8267 334.44C92.0534 334.44 92.2467 334.507 92.4067 334.64C92.5667 334.76 92.6467 334.94 92.6467 335.18C92.6467 335.647 92.3001 336.093 91.6067 336.52C90.9267 336.947 90.0601 337.16 89.0067 337.16C87.5934 337.16 86.4067 336.733 85.4467 335.88C84.5001 335.027 84.0267 333.767 84.0267 332.1ZM91.0667 330.14C91.0667 329.62 90.8401 329.18 90.3867 328.82C89.9467 328.46 89.3334 328.28 88.5467 328.28C87.7734 328.28 87.0934 328.593 86.5067 329.22C85.9201 329.847 85.6201 330.553 85.6067 331.34C86.5667 331.66 87.5201 331.82 88.4667 331.82C90.2001 331.82 91.0667 331.26 91.0667 330.14ZM94.5397 328.3C95.4864 327.407 96.6464 326.96 98.0197 326.96C99.393 326.96 100.553 327.407 101.5 328.3C102.446 329.193 102.92 330.453 102.92 332.08C102.92 333.707 102.446 334.96 101.5 335.84C100.553 336.72 99.393 337.16 98.0197 337.16C96.6464 337.16 95.4864 336.72 94.5397 335.84C93.593 334.96 93.1197 333.707 93.1197 332.08C93.1197 330.453 93.593 329.193 94.5397 328.3ZM100.32 329.32C99.733 328.667 98.9664 328.34 98.0197 328.34C97.073 328.34 96.2997 328.667 95.6997 329.32C95.113 329.96 94.8197 330.88 94.8197 332.08C94.8197 333.267 95.113 334.187 95.6997 334.84C96.2997 335.48 97.073 335.8 98.0197 335.8C98.9664 335.8 99.733 335.48 100.32 334.84C100.92 334.187 101.22 333.267 101.22 332.08C101.22 330.88 100.92 329.96 100.32 329.32ZM110.531 323.42H114.171C115.545 323.42 116.665 323.753 117.531 324.42C118.398 325.073 118.831 326.12 118.831 327.56C118.831 328.987 118.398 330.04 117.531 330.72C116.665 331.387 115.545 331.72 114.171 331.72H111.491V336.24C111.491 336.747 111.231 337 110.711 337H110.531C110.011 337 109.751 336.747 109.751 336.24V324.2C109.751 323.68 110.011 323.42 110.531 323.42ZM111.491 324.9V330.22H114.191C116.151 330.22 117.131 329.333 117.131 327.56C117.131 325.787 116.151 324.9 114.191 324.9H111.491ZM121.059 322.98H121.199C121.705 322.98 121.959 323.227 121.959 323.72V336.24C121.959 336.747 121.705 337 121.199 337H121.059C120.779 337 120.579 336.94 120.459 336.82C120.352 336.7 120.299 336.507 120.299 336.24V323.72C120.299 323.453 120.352 323.267 120.459 323.16C120.579 323.04 120.779 322.98 121.059 322.98ZM127.303 326.98C130.13 326.98 131.543 328.293 131.543 330.92V334.88C131.543 335.613 131.823 336.08 132.383 336.28C132.183 336.787 131.81 337.04 131.263 337.04C130.863 337.04 130.543 336.9 130.303 336.62C130.076 336.327 129.963 335.947 129.963 335.48C129.123 336.6 128.036 337.16 126.703 337.16C125.623 337.16 124.77 336.887 124.143 336.34C123.53 335.78 123.223 335.033 123.223 334.1C123.223 333.153 123.583 332.387 124.303 331.8C125.036 331.213 126.023 330.92 127.263 330.92C128.01 330.92 128.636 331 129.143 331.16C129.556 331.307 129.803 331.4 129.883 331.44V330.56C129.883 329.747 129.676 329.173 129.263 328.84C128.85 328.493 128.223 328.32 127.383 328.32C126.196 328.32 125.276 328.773 124.623 329.68C124.063 329.6 123.783 329.34 123.783 328.9C123.783 328.393 124.13 327.947 124.823 327.56C125.516 327.173 126.343 326.98 127.303 326.98ZM129.883 332.72C129.043 332.347 128.216 332.16 127.403 332.16C126.59 332.16 125.963 332.333 125.523 332.68C125.083 333.027 124.863 333.48 124.863 334.04C124.863 334.587 125.05 335.027 125.423 335.36C125.81 335.68 126.37 335.84 127.103 335.84C127.85 335.84 128.496 335.573 129.043 335.04C129.603 334.507 129.883 333.86 129.883 333.1V332.72ZM134.047 327.14H134.187C134.693 327.14 134.947 327.393 134.947 327.9V328.88C135.2 328.373 135.6 327.927 136.147 327.54C136.693 327.153 137.32 326.96 138.027 326.96C139.107 326.96 139.987 327.287 140.667 327.94C141.36 328.58 141.707 329.6 141.707 331V336.24C141.707 336.507 141.647 336.7 141.527 336.82C141.407 336.94 141.213 337 140.947 337H140.787C140.293 337 140.047 336.747 140.047 336.24V331.06C140.047 330.087 139.84 329.393 139.427 328.98C139.013 328.567 138.413 328.36 137.627 328.36C136.84 328.36 136.2 328.68 135.707 329.32C135.213 329.96 134.967 330.807 134.967 331.86V336.24C134.967 336.747 134.707 337 134.187 337H134.047C133.78 337 133.587 336.94 133.467 336.82C133.347 336.7 133.287 336.507 133.287 336.24V327.9C133.287 327.393 133.54 327.14 134.047 327.14ZM147.479 326.96C148.466 326.96 149.619 327.167 150.939 327.58C151.406 327.74 151.639 328.067 151.639 328.56V340.78C151.639 341.273 151.386 341.52 150.879 341.52H150.719C150.213 341.52 149.959 341.273 149.959 340.78V335.54C149.666 336.047 149.233 336.44 148.659 336.72C148.086 337 147.473 337.14 146.819 337.14C145.633 337.14 144.653 336.74 143.879 335.94C143.106 335.127 142.719 333.88 142.719 332.2C142.719 330.52 143.173 329.227 144.079 328.32C144.999 327.413 146.133 326.96 147.479 326.96ZM147.379 328.34C146.499 328.34 145.779 328.673 145.219 329.34C144.659 330.007 144.379 330.973 144.379 332.24C144.379 334.587 145.346 335.76 147.279 335.76C148.213 335.76 148.893 335.413 149.319 334.72C149.746 334.027 149.959 333.18 149.959 332.18V328.94C149.826 328.847 149.493 328.727 148.959 328.58C148.439 328.42 147.913 328.34 147.379 328.34ZM153.946 327.16H154.086C154.592 327.16 154.846 327.407 154.846 327.9V333.04C154.846 334.867 155.652 335.78 157.266 335.78C157.879 335.78 158.392 335.6 158.806 335.24C159.552 334.6 159.926 333.64 159.926 332.36V327.9C159.926 327.407 160.186 327.16 160.706 327.16H160.846C161.112 327.16 161.299 327.22 161.406 327.34C161.526 327.447 161.586 327.633 161.586 327.9V336.26C161.586 336.527 161.526 336.72 161.406 336.84C161.286 336.947 161.092 337 160.826 337H160.706C160.186 337 159.926 336.753 159.926 336.26V335.26C159.739 335.687 159.339 336.113 158.726 336.54C158.126 336.953 157.479 337.16 156.786 337.16C154.386 337.16 153.186 335.82 153.186 333.14V327.9C153.186 327.407 153.439 327.16 153.946 327.16ZM162.778 332.1C162.778 330.433 163.244 329.16 164.178 328.28C165.111 327.4 166.184 326.96 167.398 326.96C168.611 326.96 169.571 327.273 170.278 327.9C170.984 328.513 171.338 329.28 171.338 330.2C171.338 331.12 170.971 331.84 170.238 332.36C169.518 332.867 168.584 333.12 167.438 333.12C166.291 333.12 165.258 332.94 164.338 332.58C164.338 333.553 164.671 334.34 165.338 334.94C166.004 335.527 166.818 335.82 167.778 335.82C169.271 335.82 170.204 335.36 170.578 334.44C170.804 334.44 170.998 334.507 171.158 334.64C171.318 334.76 171.398 334.94 171.398 335.18C171.398 335.647 171.051 336.093 170.358 336.52C169.678 336.947 168.811 337.16 167.758 337.16C166.344 337.16 165.158 336.733 164.198 335.88C163.251 335.027 162.778 333.767 162.778 332.1ZM169.818 330.14C169.818 329.62 169.591 329.18 169.138 328.82C168.698 328.46 168.084 328.28 167.298 328.28C166.524 328.28 165.844 328.593 165.258 329.22C164.671 329.847 164.371 330.553 164.358 331.34C165.318 331.66 166.271 331.82 167.217 331.82C168.951 331.82 169.818 331.26 169.818 330.14ZM174.11 324.48H174.25C174.757 324.48 175.01 324.727 175.01 325.22V327.2H177.77C178.29 327.2 178.55 327.427 178.55 327.88C178.55 328.333 178.29 328.56 177.77 328.56H175.01V333.6C175.01 334.44 175.17 335.033 175.49 335.38C175.824 335.713 176.304 335.88 176.93 335.88C177.57 335.88 178.044 335.727 178.35 335.42C178.684 335.527 178.85 335.74 178.85 336.06C178.85 336.38 178.63 336.647 178.19 336.86C177.75 337.06 177.224 337.16 176.61 337.16C174.437 337.16 173.35 335.973 173.35 333.6V328.56H172.37C172.077 328.56 171.864 328.513 171.73 328.42C171.597 328.327 171.53 328.147 171.53 327.88C171.53 327.427 171.81 327.2 172.37 327.2H173.35V325.22C173.35 324.727 173.604 324.48 174.11 324.48ZM180.938 324.48H181.078C181.584 324.48 181.838 324.727 181.838 325.22V327.2H184.598C185.118 327.2 185.378 327.427 185.378 327.88C185.378 328.333 185.118 328.56 184.598 328.56H181.838V333.6C181.838 334.44 181.998 335.033 182.318 335.38C182.651 335.713 183.131 335.88 183.758 335.88C184.398 335.88 184.871 335.727 185.178 335.42C185.511 335.527 185.678 335.74 185.678 336.06C185.678 336.38 185.458 336.647 185.018 336.86C184.578 337.06 184.051 337.16 183.438 337.16C181.264 337.16 180.178 335.973 180.178 333.6V328.56H179.198C178.904 328.56 178.691 328.513 178.558 328.42C178.424 328.327 178.358 328.147 178.358 327.88C178.358 327.427 178.638 327.2 179.198 327.2H180.178V325.22C180.178 324.727 180.431 324.48 180.938 324.48ZM185.525 332.1C185.525 330.433 185.992 329.16 186.925 328.28C187.858 327.4 188.932 326.96 190.145 326.96C191.358 326.96 192.318 327.273 193.025 327.9C193.732 328.513 194.085 329.28 194.085 330.2C194.085 331.12 193.718 331.84 192.985 332.36C192.265 332.867 191.332 333.12 190.185 333.12C189.038 333.12 188.005 332.94 187.085 332.58C187.085 333.553 187.418 334.34 188.085 334.94C188.752 335.527 189.565 335.82 190.525 335.82C192.018 335.82 192.952 335.36 193.325 334.44C193.552 334.44 193.745 334.507 193.905 334.64C194.065 334.76 194.145 334.94 194.145 335.18C194.145 335.647 193.798 336.093 193.105 336.52C192.425 336.947 191.558 337.16 190.505 337.16C189.092 337.16 187.905 336.733 186.945 335.88C185.998 335.027 185.525 333.767 185.525 332.1ZM192.565 330.14C192.565 329.62 192.338 329.18 191.885 328.82C191.445 328.46 190.832 328.28 190.045 328.28C189.272 328.28 188.592 328.593 188.005 329.22C187.418 329.847 187.118 330.553 187.105 331.34C188.065 331.66 189.018 331.82 189.965 331.82C191.698 331.82 192.565 331.26 192.565 330.14ZM209.025 330.3L209.145 330.24C209.999 330.693 210.425 331.42 210.425 332.42C210.425 333.247 210.239 334.007 209.865 334.7C210.399 335.26 210.765 335.66 210.965 335.9C211.165 336.127 211.305 336.287 211.385 336.38C211.465 336.473 211.505 336.58 211.505 336.7C211.505 336.9 211.365 337 211.085 337H210.485C210.232 337 209.932 336.833 209.585 336.5C209.252 336.153 209.039 335.94 208.945 335.86C208.025 336.793 206.772 337.26 205.185 337.26C203.599 337.26 202.365 336.88 201.485 336.12C200.619 335.36 200.185 334.467 200.185 333.44C200.185 332.627 200.419 331.92 200.885 331.32C201.365 330.72 202.099 330.147 203.085 329.6C202.459 328.973 202.005 328.447 201.725 328.02C201.459 327.58 201.325 327.073 201.325 326.5C201.325 325.607 201.632 324.84 202.245 324.2C202.872 323.56 203.699 323.24 204.725 323.24C205.752 323.24 206.592 323.567 207.245 324.22C207.899 324.86 208.225 325.593 208.225 326.42C208.225 327.233 207.965 327.893 207.445 328.4C206.939 328.907 206.199 329.407 205.225 329.9C207.599 332.433 208.812 333.727 208.865 333.78C209.159 333.233 209.305 332.68 209.305 332.12C209.305 331.547 209.212 330.94 209.025 330.3ZM205.065 335.96C206.372 335.96 207.359 335.593 208.025 334.86L203.925 330.6C202.512 331.24 201.805 332.187 201.805 333.44C201.805 334.107 202.099 334.693 202.685 335.2C203.272 335.707 204.065 335.96 205.065 335.96ZM202.925 326.5C202.925 327.207 203.432 328.02 204.445 328.94C205.232 328.553 205.805 328.187 206.165 327.84C206.539 327.493 206.725 327.06 206.725 326.54C206.725 326.007 206.539 325.567 206.165 325.22C205.805 324.86 205.339 324.68 204.765 324.68C204.192 324.68 203.739 324.847 203.405 325.18C203.085 325.513 202.925 325.953 202.925 326.5ZM218.818 323.42H225.718C226.211 323.42 226.458 323.673 226.458 324.18C226.458 324.673 226.211 324.92 225.718 324.92H219.778V329.2H225.058C225.551 329.2 225.798 329.453 225.798 329.96C225.798 330.453 225.551 330.7 225.058 330.7H219.778V335.5H225.718C226.211 335.5 226.458 335.753 226.458 336.26C226.458 336.753 226.211 337 225.718 337H218.818C218.298 337 218.038 336.747 218.038 336.24V324.18C218.038 323.673 218.298 323.42 218.818 323.42ZM228.701 322.98H228.841C229.348 322.98 229.601 323.227 229.601 323.72V336.24C229.601 336.747 229.348 337 228.841 337H228.701C228.421 337 228.221 336.94 228.101 336.82C227.994 336.7 227.941 336.507 227.941 336.24V323.72C227.941 323.453 227.994 323.267 228.101 323.16C228.221 323.04 228.421 322.98 228.701 322.98ZM232.245 328.3C233.192 327.407 234.352 326.96 235.725 326.96C237.098 326.96 238.258 327.407 239.205 328.3C240.152 329.193 240.625 330.453 240.625 332.08C240.625 333.707 240.152 334.96 239.205 335.84C238.258 336.72 237.098 337.16 235.725 337.16C234.352 337.16 233.192 336.72 232.245 335.84C231.298 334.96 230.825 333.707 230.825 332.08C230.825 330.453 231.298 329.193 232.245 328.3ZM238.025 329.32C237.438 328.667 236.672 328.34 235.725 328.34C234.778 328.34 234.005 328.667 233.405 329.32C232.818 329.96 232.525 330.88 232.525 332.08C232.525 333.267 232.818 334.187 233.405 334.84C234.005 335.48 234.778 335.8 235.725 335.8C236.672 335.8 237.438 335.48 238.025 334.84C238.625 334.187 238.925 333.267 238.925 332.08C238.925 330.88 238.625 329.96 238.025 329.32ZM242.83 327.14H242.95C243.456 327.14 243.71 327.387 243.71 327.88V336.24C243.71 336.747 243.456 337 242.95 337H242.83C242.323 337 242.07 336.747 242.07 336.24V327.88C242.07 327.387 242.323 327.14 242.83 327.14ZM241.79 324.32C241.79 324.013 241.896 323.753 242.11 323.54C242.323 323.313 242.576 323.2 242.87 323.2C243.176 323.2 243.436 323.313 243.65 323.54C243.876 323.753 243.99 324.013 243.99 324.32C243.99 324.613 243.883 324.873 243.67 325.1C243.456 325.313 243.196 325.42 242.89 325.42C242.583 325.42 242.323 325.313 242.11 325.1C241.896 324.887 241.79 324.627 241.79 324.32ZM245.364 329.88C245.364 328.973 245.751 328.26 246.524 327.74C247.311 327.207 248.184 326.94 249.144 326.94C250.104 326.94 250.844 327.08 251.364 327.36C251.897 327.627 252.164 327.947 252.164 328.32C252.164 328.693 251.904 328.967 251.384 329.14C251.291 328.927 251.031 328.727 250.604 328.54C250.191 328.353 249.677 328.26 249.064 328.26C248.451 328.26 247.944 328.38 247.544 328.62C247.157 328.847 246.964 329.173 246.964 329.6C246.964 330.013 247.111 330.333 247.404 330.56C247.697 330.787 248.384 331.027 249.464 331.28C250.557 331.52 251.391 331.873 251.964 332.34C252.537 332.807 252.824 333.46 252.824 334.3C252.824 335.14 252.437 335.827 251.664 336.36C250.891 336.88 249.937 337.14 248.804 337.14C247.684 337.14 246.784 337 246.104 336.72C245.437 336.427 245.104 336.047 245.104 335.58C245.104 335.113 245.324 334.773 245.764 334.56C245.951 334.92 246.311 335.227 246.844 335.48C247.377 335.733 248.044 335.86 248.844 335.86C249.644 335.86 250.251 335.713 250.664 335.42C251.091 335.127 251.304 334.767 251.304 334.34C251.304 333.9 251.111 333.56 250.724 333.32C250.351 333.067 249.611 332.82 248.504 332.58C247.411 332.34 246.611 332 246.104 331.56C245.611 331.107 245.364 330.547 245.364 329.88ZM253.202 332.1C253.202 330.433 253.668 329.16 254.602 328.28C255.535 327.4 256.608 326.96 257.822 326.96C259.035 326.96 259.995 327.273 260.702 327.9C261.408 328.513 261.762 329.28 261.762 330.2C261.762 331.12 261.395 331.84 260.662 332.36C259.942 332.867 259.008 333.12 257.862 333.12C256.715 333.12 255.682 332.94 254.762 332.58C254.762 333.553 255.095 334.34 255.762 334.94C256.428 335.527 257.242 335.82 258.202 335.82C259.695 335.82 260.628 335.36 261.002 334.44C261.228 334.44 261.422 334.507 261.582 334.64C261.742 334.76 261.822 334.94 261.822 335.18C261.822 335.647 261.475 336.093 260.782 336.52C260.102 336.947 259.235 337.16 258.182 337.16C256.768 337.16 255.582 336.733 254.622 335.88C253.675 335.027 253.202 333.767 253.202 332.1ZM260.242 330.14C260.242 329.62 260.015 329.18 259.562 328.82C259.122 328.46 258.508 328.28 257.722 328.28C256.948 328.28 256.268 328.593 255.682 329.22C255.095 329.847 254.795 330.553 254.782 331.34C255.742 331.66 256.695 331.82 257.642 331.82C259.375 331.82 260.242 331.26 260.242 330.14ZM269.422 323.42H269.602C270.122 323.42 270.382 323.673 270.382 324.18V335.5H276.542C277.049 335.5 277.302 335.753 277.302 336.26C277.302 336.753 277.049 337 276.542 337H269.422C268.902 337 268.642 336.747 268.642 336.24V324.18C268.642 323.673 268.902 323.42 269.422 323.42ZM277.649 332.1C277.649 330.433 278.115 329.16 279.049 328.28C279.982 327.4 281.055 326.96 282.269 326.96C283.482 326.96 284.442 327.273 285.149 327.9C285.855 328.513 286.209 329.28 286.209 330.2C286.209 331.12 285.842 331.84 285.109 332.36C284.389 332.867 283.455 333.12 282.309 333.12C281.162 333.12 280.129 332.94 279.209 332.58C279.209 333.553 279.542 334.34 280.209 334.94C280.875 335.527 281.689 335.82 282.649 335.82C284.142 335.82 285.075 335.36 285.449 334.44C285.675 334.44 285.869 334.507 286.029 334.64C286.189 334.76 286.269 334.94 286.269 335.18C286.269 335.647 285.922 336.093 285.229 336.52C284.549 336.947 283.682 337.16 282.629 337.16C281.215 337.16 280.029 336.733 279.069 335.88C278.122 335.027 277.649 333.767 277.649 332.1ZM284.689 330.14C284.689 329.62 284.462 329.18 284.009 328.82C283.569 328.46 282.955 328.28 282.169 328.28C281.395 328.28 280.715 328.593 280.129 329.22C279.542 329.847 279.242 330.553 279.229 331.34C280.189 331.66 281.142 331.82 282.089 331.82C283.822 331.82 284.689 331.26 284.689 330.14ZM292.142 322.64C292.755 322.64 293.262 322.78 293.662 323.06C294.075 323.34 294.282 323.693 294.282 324.12C294.282 324.533 294.068 324.813 293.642 324.96C293.308 324.4 292.775 324.12 292.042 324.12C290.655 324.12 289.962 325.08 289.962 327V327.2H292.422C292.928 327.2 293.182 327.427 293.182 327.88C293.182 328.32 292.928 328.54 292.422 328.54H289.962V336.34C289.962 336.607 289.902 336.8 289.782 336.92C289.662 337.027 289.468 337.08 289.202 337.08H289.102C288.822 337.08 288.622 337.027 288.502 336.92C288.382 336.8 288.322 336.607 288.322 336.34V328.54H287.282C287.002 328.54 286.802 328.5 286.682 328.42C286.575 328.327 286.522 328.147 286.522 327.88C286.522 327.613 286.582 327.433 286.702 327.34C286.822 327.247 287.015 327.2 287.282 327.2H288.322V326.56C288.322 325.32 288.662 324.36 289.342 323.68C290.022 322.987 290.955 322.64 292.142 322.64ZM293.022 332.1C293.022 330.433 293.489 329.16 294.422 328.28C295.355 327.4 296.429 326.96 297.642 326.96C298.855 326.96 299.815 327.273 300.522 327.9C301.229 328.513 301.582 329.28 301.582 330.2C301.582 331.12 301.215 331.84 300.482 332.36C299.762 332.867 298.829 333.12 297.682 333.12C296.535 333.12 295.502 332.94 294.582 332.58C294.582 333.553 294.915 334.34 295.582 334.94C296.249 335.527 297.062 335.82 298.022 335.82C299.515 335.82 300.449 335.36 300.822 334.44C301.049 334.44 301.242 334.507 301.402 334.64C301.562 334.76 301.642 334.94 301.642 335.18C301.642 335.647 301.295 336.093 300.602 336.52C299.922 336.947 299.055 337.16 298.002 337.16C296.589 337.16 295.402 336.733 294.442 335.88C293.495 335.027 293.022 333.767 293.022 332.1ZM300.062 330.14C300.062 329.62 299.835 329.18 299.382 328.82C298.942 328.46 298.329 328.28 297.542 328.28C296.769 328.28 296.089 328.593 295.502 329.22C294.915 329.847 294.615 330.553 294.602 331.34C295.562 331.66 296.515 331.82 297.462 331.82C299.195 331.82 300.062 331.26 300.062 330.14ZM303.475 322.98H303.635C304.142 322.98 304.395 323.227 304.395 323.72V328.5C304.662 328.047 305.075 327.673 305.635 327.38C306.195 327.087 306.808 326.94 307.475 326.94C308.715 326.94 309.715 327.36 310.475 328.2C311.248 329.027 311.635 330.293 311.635 332C311.635 333.693 311.182 334.98 310.275 335.86C309.368 336.727 308.288 337.16 307.035 337.16C305.795 337.16 304.555 336.927 303.315 336.46C303.115 336.38 302.968 336.28 302.875 336.16C302.782 336.04 302.735 335.86 302.735 335.62V323.72C302.735 323.227 302.982 322.98 303.475 322.98ZM307.295 328.36C306.455 328.36 305.762 328.693 305.215 329.36C304.668 330.013 304.395 330.88 304.395 331.96V335.16C305.142 335.56 305.982 335.76 306.915 335.76C307.848 335.76 308.588 335.447 309.135 334.82C309.695 334.193 309.975 333.253 309.975 332C309.975 329.573 309.082 328.36 307.295 328.36ZM312.681 327.16H313.141C313.568 327.16 313.828 327.367 313.921 327.78C314.801 331.22 315.648 333.76 316.461 335.4H316.701C317.515 333.76 318.361 331.22 319.241 327.78C319.335 327.367 319.595 327.16 320.021 327.16H320.481C320.895 327.16 321.101 327.307 321.101 327.6C321.101 327.68 321.081 327.773 321.041 327.88C320.015 331.387 319.015 334.1 318.041 336.02C317.868 336.367 317.688 336.62 317.501 336.78C317.315 336.927 317.041 337 316.681 337H316.501C316.128 337 315.848 336.927 315.661 336.78C315.475 336.62 315.295 336.367 315.121 336.02C314.148 334.1 313.148 331.387 312.121 327.88C312.081 327.773 312.061 327.68 312.061 327.6C312.061 327.307 312.268 327.16 312.681 327.16ZM322.697 327.14H322.817C323.323 327.14 323.577 327.387 323.577 327.88V328.96C323.803 328.453 324.163 328 324.657 327.6C325.163 327.2 325.703 327 326.277 327C326.85 327 327.283 327.113 327.577 327.34C327.883 327.567 328.037 327.847 328.037 328.18C328.037 328.5 327.897 328.753 327.617 328.94C327.203 328.593 326.763 328.42 326.297 328.42C325.47 328.42 324.817 328.76 324.337 329.44C323.857 330.107 323.617 330.947 323.617 331.96V336.24C323.617 336.507 323.557 336.7 323.437 336.82C323.317 336.94 323.123 337 322.857 337H322.697C322.43 337 322.237 336.94 322.117 336.82C321.997 336.7 321.937 336.507 321.937 336.24V327.88C321.937 327.387 322.19 327.14 322.697 327.14ZM328.046 332.1C328.046 330.433 328.513 329.16 329.446 328.28C330.38 327.4 331.453 326.96 332.666 326.96C333.88 326.96 334.84 327.273 335.546 327.9C336.253 328.513 336.606 329.28 336.606 330.2C336.606 331.12 336.24 331.84 335.506 332.36C334.786 332.867 333.853 333.12 332.706 333.12C331.56 333.12 330.526 332.94 329.606 332.58C329.606 333.553 329.94 334.34 330.606 334.94C331.273 335.527 332.086 335.82 333.046 335.82C334.54 335.82 335.473 335.36 335.846 334.44C336.073 334.44 336.266 334.507 336.426 334.64C336.586 334.76 336.666 334.94 336.666 335.18C336.666 335.647 336.32 336.093 335.626 336.52C334.946 336.947 334.08 337.16 333.026 337.16C331.613 337.16 330.426 336.733 329.466 335.88C328.52 335.027 328.046 333.767 328.046 332.1ZM335.086 330.14C335.086 329.62 334.86 329.18 334.406 328.82C333.966 328.46 333.353 328.28 332.566 328.28C331.793 328.28 331.113 328.593 330.526 329.22C329.94 329.847 329.64 330.553 329.626 331.34C330.586 331.66 331.54 331.82 332.486 331.82C334.22 331.82 335.086 331.26 335.086 330.14Z" fill="#272735"/>
<path d="M51.88 381.26C53.2933 381.26 54.4533 381.54 55.36 382.1C56.28 382.66 56.74 383.28 56.74 383.96C56.74 384.253 56.6267 384.493 56.4 384.68C56.1867 384.853 55.9 384.94 55.54 384.94C55.1267 383.527 53.9067 382.82 51.88 382.82C50.5467 382.82 49.4133 383.273 48.48 384.18C47.56 385.073 47.1 386.407 47.1 388.18C47.1 389.94 47.5667 391.293 48.5 392.24C49.4333 393.173 50.56 393.64 51.88 393.64C53.9333 393.64 55.24 392.887 55.8 391.38C56.12 391.38 56.3667 391.473 56.54 391.66C56.7267 391.833 56.82 392.067 56.82 392.36C56.82 393.04 56.3533 393.68 55.42 394.28C54.4867 394.867 53.3067 395.16 51.88 395.16C50 395.16 48.4267 394.553 47.16 393.34C45.8933 392.127 45.26 390.407 45.26 388.18C45.26 385.953 45.8933 384.247 47.16 383.06C48.4267 381.86 50 381.26 51.88 381.26ZM59.0444 386.3C59.991 385.407 61.151 384.96 62.5244 384.96C63.8977 384.96 65.0577 385.407 66.0044 386.3C66.951 387.193 67.4244 388.453 67.4244 390.08C67.4244 391.707 66.951 392.96 66.0044 393.84C65.0577 394.72 63.8977 395.16 62.5244 395.16C61.151 395.16 59.991 394.72 59.0444 393.84C58.0977 392.96 57.6244 391.707 57.6244 390.08C57.6244 388.453 58.0977 387.193 59.0444 386.3ZM64.8244 387.32C64.2377 386.667 63.471 386.34 62.5244 386.34C61.5777 386.34 60.8044 386.667 60.2044 387.32C59.6177 387.96 59.3244 388.88 59.3244 390.08C59.3244 391.267 59.6177 392.187 60.2044 392.84C60.8044 393.48 61.5777 393.8 62.5244 393.8C63.471 393.8 64.2377 393.48 64.8244 392.84C65.4244 392.187 65.7244 391.267 65.7244 390.08C65.7244 388.88 65.4244 387.96 64.8244 387.32ZM69.2888 385.14H69.4288C69.9354 385.14 70.1888 385.393 70.1888 385.9V386.88C70.4421 386.373 70.8421 385.927 71.3888 385.54C71.9354 385.153 72.5621 384.96 73.2688 384.96C74.3488 384.96 75.2288 385.287 75.9088 385.94C76.6021 386.58 76.9488 387.6 76.9488 389V394.24C76.9488 394.507 76.8888 394.7 76.7688 394.82C76.6488 394.94 76.4554 395 76.1888 395H76.0288C75.5354 395 75.2888 394.747 75.2888 394.24V389.06C75.2888 388.087 75.0821 387.393 74.6688 386.98C74.2554 386.567 73.6554 386.36 72.8688 386.36C72.0821 386.36 71.4421 386.68 70.9488 387.32C70.4554 387.96 70.2088 388.807 70.2088 389.86V394.24C70.2088 394.747 69.9488 395 69.4288 395H69.2888C69.0221 395 68.8288 394.94 68.7088 394.82C68.5888 394.7 68.5288 394.507 68.5288 394.24V385.9C68.5288 385.393 68.7821 385.14 69.2888 385.14ZM80.0816 382.48H80.2216C80.7282 382.48 80.9816 382.727 80.9816 383.22V385.2H83.7416C84.2616 385.2 84.5216 385.427 84.5216 385.88C84.5216 386.333 84.2616 386.56 83.7416 386.56H80.9816V391.6C80.9816 392.44 81.1416 393.033 81.4616 393.38C81.7949 393.713 82.2749 393.88 82.9016 393.88C83.5416 393.88 84.0149 393.727 84.3216 393.42C84.6549 393.527 84.8216 393.74 84.8216 394.06C84.8216 394.38 84.6016 394.647 84.1616 394.86C83.7216 395.06 83.1949 395.16 82.5816 395.16C80.4082 395.16 79.3216 393.973 79.3216 391.6V386.56H78.3416C78.0482 386.56 77.8349 386.513 77.7016 386.42C77.5682 386.327 77.5016 386.147 77.5016 385.88C77.5016 385.427 77.7816 385.2 78.3416 385.2H79.3216V383.22C79.3216 382.727 79.5749 382.48 80.0816 382.48ZM88.7889 384.98C91.6156 384.98 93.0289 386.293 93.0289 388.92V392.88C93.0289 393.613 93.3089 394.08 93.8689 394.28C93.6689 394.787 93.2956 395.04 92.7489 395.04C92.3489 395.04 92.0289 394.9 91.7889 394.62C91.5622 394.327 91.4489 393.947 91.4489 393.48C90.6089 394.6 89.5222 395.16 88.1889 395.16C87.1089 395.16 86.2556 394.887 85.6289 394.34C85.0156 393.78 84.7089 393.033 84.7089 392.1C84.7089 391.153 85.0689 390.387 85.7889 389.8C86.5222 389.213 87.5089 388.92 88.7489 388.92C89.4956 388.92 90.1222 389 90.6289 389.16C91.0422 389.307 91.2889 389.4 91.3689 389.44V388.56C91.3689 387.747 91.1622 387.173 90.7489 386.84C90.3356 386.493 89.7089 386.32 88.8689 386.32C87.6822 386.32 86.7622 386.773 86.1089 387.68C85.5489 387.6 85.2689 387.34 85.2689 386.9C85.2689 386.393 85.6156 385.947 86.3089 385.56C87.0022 385.173 87.8289 384.98 88.7889 384.98ZM91.3689 390.72C90.5289 390.347 89.7022 390.16 88.8889 390.16C88.0756 390.16 87.4489 390.333 87.0089 390.68C86.5689 391.027 86.3489 391.48 86.3489 392.04C86.3489 392.587 86.5356 393.027 86.9089 393.36C87.2956 393.68 87.8556 393.84 88.5889 393.84C89.3356 393.84 89.9822 393.573 90.5289 393.04C91.0889 392.507 91.3689 391.86 91.3689 391.1V390.72ZM95.7325 386.1C96.2258 385.713 96.7525 385.427 97.3125 385.24C97.8725 385.053 98.5525 384.96 99.3525 384.96C100.153 384.96 100.853 385.14 101.453 385.5C102.066 385.86 102.373 386.247 102.373 386.66C102.373 387.167 102.086 387.453 101.513 387.52C101.379 387.227 101.079 386.96 100.613 386.72C100.146 386.467 99.5925 386.34 98.9525 386.34C98.0592 386.34 97.3192 386.66 96.7325 387.3C96.1458 387.927 95.8525 388.847 95.8525 390.06C95.8525 391.273 96.1525 392.2 96.7525 392.84C97.3525 393.48 98.0725 393.8 98.9125 393.8C100.246 393.8 101.146 393.367 101.613 392.5C101.866 392.5 102.079 392.58 102.253 392.74C102.426 392.887 102.513 393.08 102.513 393.32C102.513 393.787 102.193 394.213 101.553 394.6C100.913 394.973 100.179 395.16 99.3525 395.16C98.5392 395.16 97.8458 395.067 97.2725 394.88C96.7125 394.68 96.1925 394.387 95.7125 394C95.2325 393.6 94.8525 393.067 94.5725 392.4C94.2925 391.733 94.1525 390.96 94.1525 390.08C94.1525 389.187 94.2925 388.4 94.5725 387.72C94.8658 387.027 95.2525 386.487 95.7325 386.1ZM105.095 382.48H105.235C105.742 382.48 105.995 382.727 105.995 383.22V385.2H108.755C109.275 385.2 109.535 385.427 109.535 385.88C109.535 386.333 109.275 386.56 108.755 386.56H105.995V391.6C105.995 392.44 106.155 393.033 106.475 393.38C106.808 393.713 107.288 393.88 107.915 393.88C108.555 393.88 109.028 393.727 109.335 393.42C109.668 393.527 109.835 393.74 109.835 394.06C109.835 394.38 109.615 394.647 109.175 394.86C108.735 395.06 108.208 395.16 107.595 395.16C105.422 395.16 104.335 393.973 104.335 391.6V386.56H103.355C103.062 386.56 102.848 386.513 102.715 386.42C102.582 386.327 102.515 386.147 102.515 385.88C102.515 385.427 102.795 385.2 103.355 385.2H104.335V383.22C104.335 382.727 104.588 382.48 105.095 382.48ZM115.309 393.86C115.309 393.473 115.436 393.16 115.689 392.92C115.943 392.68 116.249 392.56 116.609 392.56C116.983 392.56 117.296 392.68 117.549 392.92C117.803 393.16 117.929 393.473 117.929 393.86C117.929 394.247 117.803 394.56 117.549 394.8C117.296 395.04 116.983 395.16 116.609 395.16C116.249 395.16 115.943 395.04 115.689 394.8C115.436 394.56 115.309 394.247 115.309 393.86ZM115.309 387.1C115.309 386.713 115.436 386.4 115.689 386.16C115.943 385.92 116.249 385.8 116.609 385.8C116.983 385.8 117.296 385.92 117.549 386.16C117.803 386.4 117.929 386.713 117.929 387.1C117.929 387.487 117.803 387.8 117.549 388.04C117.296 388.28 116.983 388.4 116.609 388.4C116.249 388.4 115.943 388.28 115.689 388.04C115.436 387.8 115.309 387.487 115.309 387.1Z" fill="#272735"/>
<path d="M44 397H119.229V398H44V397Z" fill="#272735"/>
<path d="M81.96 416.58H82.12C82.6267 416.58 82.88 416.82 82.88 417.3V430.28C82.88 430.76 82.6267 431 82.12 431H81.96C81.4533 431 81.2 430.773 81.2 430.32V429.34C80.9067 429.86 80.4867 430.293 79.94 430.64C79.3933 430.973 78.7733 431.14 78.08 431.14C76.8933 431.14 75.9133 430.733 75.14 429.92C74.3667 429.107 73.98 427.86 73.98 426.18C73.98 424.487 74.4067 423.193 75.26 422.3C76.1133 421.393 77.2 420.94 78.52 420.94C79.56 420.94 80.4533 421.247 81.2 421.86V417.3C81.2 416.82 81.4533 416.58 81.96 416.58ZM81.2 423.5C80.4933 422.767 79.6467 422.4 78.66 422.4C77.6733 422.4 76.92 422.72 76.4 423.36C75.88 423.987 75.62 424.933 75.62 426.2C75.62 427.467 75.8867 428.38 76.42 428.94C76.9533 429.5 77.66 429.78 78.54 429.78C79.4333 429.78 80.1 429.447 80.54 428.78C80.98 428.113 81.2 427.287 81.2 426.3V423.5ZM85.7663 421.14H85.8863C86.3929 421.14 86.6463 421.387 86.6463 421.88V430.24C86.6463 430.747 86.3929 431 85.8863 431H85.7663C85.2596 431 85.0063 430.747 85.0063 430.24V421.88C85.0063 421.387 85.2596 421.14 85.7663 421.14ZM84.7263 418.32C84.7263 418.013 84.8329 417.753 85.0463 417.54C85.2596 417.313 85.5129 417.2 85.8063 417.2C86.1129 417.2 86.3729 417.313 86.5863 417.54C86.8129 417.753 86.9263 418.013 86.9263 418.32C86.9263 418.613 86.8196 418.873 86.6063 419.1C86.3929 419.313 86.1329 419.42 85.8263 419.42C85.5196 419.42 85.2596 419.313 85.0463 419.1C84.8329 418.887 84.7263 418.627 84.7263 418.32ZM88.3006 423.88C88.3006 422.973 88.6873 422.26 89.4606 421.74C90.2473 421.207 91.1206 420.94 92.0806 420.94C93.0406 420.94 93.7806 421.08 94.3006 421.36C94.834 421.627 95.1006 421.947 95.1006 422.32C95.1006 422.693 94.8406 422.967 94.3206 423.14C94.2273 422.927 93.9673 422.727 93.5406 422.54C93.1273 422.353 92.614 422.26 92.0006 422.26C91.3873 422.26 90.8806 422.38 90.4806 422.62C90.094 422.847 89.9006 423.173 89.9006 423.6C89.9006 424.013 90.0473 424.333 90.3406 424.56C90.634 424.787 91.3206 425.027 92.4006 425.28C93.494 425.52 94.3273 425.873 94.9006 426.34C95.474 426.807 95.7606 427.46 95.7606 428.3C95.7606 429.14 95.374 429.827 94.6006 430.36C93.8273 430.88 92.874 431.14 91.7406 431.14C90.6206 431.14 89.7206 431 89.0406 430.72C88.374 430.427 88.0406 430.047 88.0406 429.58C88.0406 429.113 88.2606 428.773 88.7006 428.56C88.8873 428.92 89.2473 429.227 89.7806 429.48C90.314 429.733 90.9806 429.86 91.7806 429.86C92.5806 429.86 93.1873 429.713 93.6006 429.42C94.0273 429.127 94.2406 428.767 94.2406 428.34C94.2406 427.9 94.0473 427.56 93.6606 427.32C93.2873 427.067 92.5473 426.82 91.4406 426.58C90.3473 426.34 89.5473 426 89.0406 425.56C88.5473 425.107 88.3006 424.547 88.3006 423.88ZM97.7184 422.1C98.2118 421.713 98.7384 421.427 99.2984 421.24C99.8584 421.053 100.538 420.96 101.338 420.96C102.138 420.96 102.838 421.14 103.438 421.5C104.052 421.86 104.358 422.247 104.358 422.66C104.358 423.167 104.072 423.453 103.498 423.52C103.365 423.227 103.065 422.96 102.598 422.72C102.132 422.467 101.578 422.34 100.938 422.34C100.045 422.34 99.3051 422.66 98.7184 423.3C98.1318 423.927 97.8384 424.847 97.8384 426.06C97.8384 427.273 98.1384 428.2 98.7384 428.84C99.3384 429.48 100.058 429.8 100.898 429.8C102.232 429.8 103.132 429.367 103.598 428.5C103.852 428.5 104.065 428.58 104.238 428.74C104.412 428.887 104.498 429.08 104.498 429.32C104.498 429.787 104.178 430.213 103.538 430.6C102.898 430.973 102.165 431.16 101.338 431.16C100.525 431.16 99.8318 431.067 99.2584 430.88C98.6984 430.68 98.1784 430.387 97.6984 430C97.2184 429.6 96.8384 429.067 96.5584 428.4C96.2784 427.733 96.1384 426.96 96.1384 426.08C96.1384 425.187 96.2784 424.4 96.5584 423.72C96.8518 423.027 97.2384 422.487 97.7184 422.1ZM106.261 422.3C107.207 421.407 108.367 420.96 109.741 420.96C111.114 420.96 112.274 421.407 113.221 422.3C114.167 423.193 114.641 424.453 114.641 426.08C114.641 427.707 114.167 428.96 113.221 429.84C112.274 430.72 111.114 431.16 109.741 431.16C108.367 431.16 107.207 430.72 106.261 429.84C105.314 428.96 104.841 427.707 104.841 426.08C104.841 424.453 105.314 423.193 106.261 422.3ZM112.041 423.32C111.454 422.667 110.687 422.34 109.741 422.34C108.794 422.34 108.021 422.667 107.421 423.32C106.834 423.96 106.541 424.88 106.541 426.08C106.541 427.267 106.834 428.187 107.421 428.84C108.021 429.48 108.794 429.8 109.741 429.8C110.687 429.8 111.454 429.48 112.041 428.84C112.641 428.187 112.941 427.267 112.941 426.08C112.941 424.88 112.641 423.96 112.041 423.32ZM115.485 421.16H115.945C116.372 421.16 116.632 421.367 116.725 421.78C117.605 425.22 118.452 427.76 119.265 429.4H119.505C120.318 427.76 121.165 425.22 122.045 421.78C122.138 421.367 122.398 421.16 122.825 421.16H123.285C123.698 421.16 123.905 421.307 123.905 421.6C123.905 421.68 123.885 421.773 123.845 421.88C122.818 425.387 121.818 428.1 120.845 430.02C120.672 430.367 120.492 430.62 120.305 430.78C120.118 430.927 119.845 431 119.485 431H119.305C118.932 431 118.652 430.927 118.465 430.78C118.278 430.62 118.098 430.367 117.925 430.02C116.952 428.1 115.952 425.387 114.925 421.88C114.885 421.773 114.865 421.68 114.865 421.6C114.865 421.307 115.072 421.16 115.485 421.16ZM124.12 426.1C124.12 424.433 124.587 423.16 125.52 422.28C126.454 421.4 127.527 420.96 128.74 420.96C129.954 420.96 130.914 421.273 131.62 421.9C132.327 422.513 132.68 423.28 132.68 424.2C132.68 425.12 132.314 425.84 131.58 426.36C130.86 426.867 129.927 427.12 128.78 427.12C127.634 427.12 126.6 426.94 125.68 426.58C125.68 427.553 126.014 428.34 126.68 428.94C127.347 429.527 128.16 429.82 129.12 429.82C130.614 429.82 131.547 429.36 131.92 428.44C132.147 428.44 132.34 428.507 132.5 428.64C132.66 428.76 132.74 428.94 132.74 429.18C132.74 429.647 132.394 430.093 131.7 430.52C131.02 430.947 130.154 431.16 129.1 431.16C127.687 431.16 126.5 430.733 125.54 429.88C124.594 429.027 124.12 427.767 124.12 426.1ZM131.16 424.14C131.16 423.62 130.934 423.18 130.48 422.82C130.04 422.46 129.427 422.28 128.64 422.28C127.867 422.28 127.187 422.593 126.6 423.22C126.014 423.847 125.714 424.553 125.7 425.34C126.66 425.66 127.614 425.82 128.56 425.82C130.294 425.82 131.16 425.26 131.16 424.14ZM134.593 421.14H134.713C135.22 421.14 135.473 421.387 135.473 421.88V422.96C135.7 422.453 136.06 422 136.553 421.6C137.06 421.2 137.6 421 138.173 421C138.747 421 139.18 421.113 139.473 421.34C139.78 421.567 139.933 421.847 139.933 422.18C139.933 422.5 139.793 422.753 139.513 422.94C139.1 422.593 138.66 422.42 138.193 422.42C137.367 422.42 136.713 422.76 136.233 423.44C135.753 424.107 135.513 424.947 135.513 425.96V430.24C135.513 430.507 135.453 430.7 135.333 430.82C135.213 430.94 135.02 431 134.753 431H134.593C134.327 431 134.133 430.94 134.013 430.82C133.893 430.7 133.833 430.507 133.833 430.24V421.88C133.833 421.387 134.087 421.14 134.593 421.14ZM140.458 421.16H140.838C141.265 421.16 141.525 421.367 141.618 421.78C142.432 424.98 143.332 427.567 144.318 429.54H144.498C145.618 426.78 146.518 424.193 147.198 421.78C147.318 421.367 147.578 421.16 147.978 421.16H148.298C148.712 421.16 148.918 421.307 148.918 421.6C148.918 421.68 148.898 421.773 148.858 421.88C147.312 426.707 145.632 431.04 143.818 434.88C143.712 435.107 143.598 435.267 143.478 435.36C143.372 435.467 143.198 435.52 142.958 435.52H142.458C142.138 435.52 141.978 435.367 141.978 435.06C141.978 434.967 142.052 434.773 142.198 434.48C143.185 432.573 143.765 431.407 143.938 430.98H143.898C143.658 430.94 143.505 430.887 143.438 430.82C143.372 430.74 143.325 430.693 143.298 430.68C143.272 430.653 143.238 430.607 143.198 430.54C143.158 430.46 143.132 430.413 143.118 430.4C143.105 430.373 143.072 430.313 143.018 430.22C142.978 430.113 142.952 430.047 142.938 430.02C141.912 427.967 140.898 425.253 139.898 421.88C139.858 421.773 139.838 421.68 139.838 421.6C139.838 421.307 140.045 421.16 140.458 421.16ZM149.49 423.88C149.49 422.973 149.877 422.26 150.65 421.74C151.437 421.207 152.31 420.94 153.27 420.94C154.23 420.94 154.97 421.08 155.49 421.36C156.024 421.627 156.29 421.947 156.29 422.32C156.29 422.693 156.03 422.967 155.51 423.14C155.417 422.927 155.157 422.727 154.73 422.54C154.317 422.353 153.804 422.26 153.19 422.26C152.577 422.26 152.07 422.38 151.67 422.62C151.284 422.847 151.09 423.173 151.09 423.6C151.09 424.013 151.237 424.333 151.53 424.56C151.824 424.787 152.51 425.027 153.59 425.28C154.684 425.52 155.517 425.873 156.09 426.34C156.664 426.807 156.95 427.46 156.95 428.3C156.95 429.14 156.564 429.827 155.79 430.36C155.017 430.88 154.064 431.14 152.93 431.14C151.81 431.14 150.91 431 150.23 430.72C149.564 430.427 149.23 430.047 149.23 429.58C149.23 429.113 149.45 428.773 149.89 428.56C150.077 428.92 150.437 429.227 150.97 429.48C151.504 429.733 152.17 429.86 152.97 429.86C153.77 429.86 154.377 429.713 154.79 429.42C155.217 429.127 155.43 428.767 155.43 428.34C155.43 427.9 155.237 427.56 154.85 427.32C154.477 427.067 153.737 426.82 152.63 426.58C151.537 426.34 150.737 426 150.23 425.56C149.737 425.107 149.49 424.547 149.49 423.88ZM159.048 421.14H159.168C159.675 421.14 159.928 421.387 159.928 421.88V430.24C159.928 430.747 159.675 431 159.168 431H159.048C158.542 431 158.288 430.747 158.288 430.24V421.88C158.288 421.387 158.542 421.14 159.048 421.14ZM158.008 418.32C158.008 418.013 158.115 417.753 158.328 417.54C158.542 417.313 158.795 417.2 159.088 417.2C159.395 417.2 159.655 417.313 159.868 417.54C160.095 417.753 160.208 418.013 160.208 418.32C160.208 418.613 160.102 418.873 159.888 419.1C159.675 419.313 159.415 419.42 159.108 419.42C158.802 419.42 158.542 419.313 158.328 419.1C158.115 418.887 158.008 418.627 158.008 418.32ZM162.743 421.14H162.863C163.383 421.14 163.643 421.393 163.643 421.9V422.74C164.256 421.58 165.196 421 166.463 421C167.276 421 167.949 421.22 168.483 421.66C169.029 422.087 169.403 422.687 169.603 423.46C169.816 422.687 170.209 422.08 170.783 421.64C171.356 421.2 172.016 420.98 172.763 420.98C175.056 420.98 176.203 422.32 176.203 425V430.26C176.203 430.753 175.936 431 175.403 431H175.283C174.776 431 174.523 430.753 174.523 430.26V425.1C174.523 423.273 173.829 422.36 172.443 422.36C171.469 422.36 170.803 422.713 170.443 423.42C170.096 424.127 169.923 425.087 169.923 426.3V430.26C169.923 430.753 169.663 431 169.143 431H169.003C168.496 431 168.243 430.753 168.243 430.26V425.1C168.243 423.273 167.543 422.36 166.143 422.36C164.476 422.36 163.643 423.653 163.643 426.24V430.26C163.643 430.753 163.383 431 162.863 431H162.743C162.236 431 161.983 430.753 161.983 430.26V421.9C161.983 421.393 162.236 421.14 162.743 421.14ZM178.236 421.16H178.376C178.883 421.16 179.136 421.407 179.136 421.9V427.04C179.136 428.867 179.943 429.78 181.556 429.78C182.17 429.78 182.683 429.6 183.096 429.24C183.843 428.6 184.216 427.64 184.216 426.36V421.9C184.216 421.407 184.476 421.16 184.996 421.16H185.136C185.403 421.16 185.59 421.22 185.696 421.34C185.816 421.447 185.876 421.633 185.876 421.9V430.26C185.876 430.527 185.816 430.72 185.696 430.84C185.576 430.947 185.383 431 185.116 431H184.996C184.476 431 184.216 430.753 184.216 430.26V429.26C184.03 429.687 183.63 430.113 183.016 430.54C182.416 430.953 181.77 431.16 181.076 431.16C178.676 431.16 177.476 429.82 177.476 427.14V421.9C177.476 421.407 177.73 421.16 178.236 421.16ZM188.568 416.98H188.708C189.215 416.98 189.468 417.227 189.468 417.72V430.24C189.468 430.747 189.215 431 188.708 431H188.568C188.288 431 188.088 430.94 187.968 430.82C187.861 430.7 187.808 430.507 187.808 430.24V417.72C187.808 417.453 187.861 417.267 187.968 417.16C188.088 417.04 188.288 416.98 188.568 416.98ZM194.812 420.98C197.639 420.98 199.052 422.293 199.052 424.92V428.88C199.052 429.613 199.332 430.08 199.892 430.28C199.692 430.787 199.319 431.04 198.772 431.04C198.372 431.04 198.052 430.9 197.812 430.62C197.586 430.327 197.472 429.947 197.472 429.48C196.632 430.6 195.546 431.16 194.212 431.16C193.132 431.16 192.279 430.887 191.652 430.34C191.039 429.78 190.732 429.033 190.732 428.1C190.732 427.153 191.092 426.387 191.812 425.8C192.546 425.213 193.532 424.92 194.772 424.92C195.519 424.92 196.146 425 196.652 425.16C197.066 425.307 197.312 425.4 197.392 425.44V424.56C197.392 423.747 197.186 423.173 196.772 422.84C196.359 422.493 195.732 422.32 194.892 422.32C193.706 422.32 192.786 422.773 192.132 423.68C191.572 423.6 191.292 423.34 191.292 422.9C191.292 422.393 191.639 421.947 192.332 421.56C193.026 421.173 193.852 420.98 194.812 420.98ZM197.392 426.72C196.552 426.347 195.726 426.16 194.912 426.16C194.099 426.16 193.472 426.333 193.032 426.68C192.592 427.027 192.372 427.48 192.372 428.04C192.372 428.587 192.559 429.027 192.932 429.36C193.319 429.68 193.879 429.84 194.612 429.84C195.359 429.84 196.006 429.573 196.552 429.04C197.112 428.507 197.392 427.86 197.392 427.1V426.72ZM202.416 418.48H202.556C203.063 418.48 203.316 418.727 203.316 419.22V421.2H206.076C206.596 421.2 206.856 421.427 206.856 421.88C206.856 422.333 206.596 422.56 206.076 422.56H203.316V427.6C203.316 428.44 203.476 429.033 203.796 429.38C204.129 429.713 204.609 429.88 205.236 429.88C205.876 429.88 206.349 429.727 206.656 429.42C206.989 429.527 207.156 429.74 207.156 430.06C207.156 430.38 206.936 430.647 206.496 430.86C206.056 431.06 205.529 431.16 204.916 431.16C202.743 431.16 201.656 429.973 201.656 427.6V422.56H200.676C200.383 422.56 200.169 422.513 200.036 422.42C199.903 422.327 199.836 422.147 199.836 421.88C199.836 421.427 200.116 421.2 200.676 421.2H201.656V419.22C201.656 418.727 201.909 418.48 202.416 418.48ZM208.423 422.3C209.37 421.407 210.53 420.96 211.903 420.96C213.277 420.96 214.437 421.407 215.383 422.3C216.33 423.193 216.803 424.453 216.803 426.08C216.803 427.707 216.33 428.96 215.383 429.84C214.437 430.72 213.277 431.16 211.903 431.16C210.53 431.16 209.37 430.72 208.423 429.84C207.477 428.96 207.003 427.707 207.003 426.08C207.003 424.453 207.477 423.193 208.423 422.3ZM214.203 423.32C213.617 422.667 212.85 422.34 211.903 422.34C210.957 422.34 210.183 422.667 209.583 423.32C208.997 423.96 208.703 424.88 208.703 426.08C208.703 427.267 208.997 428.187 209.583 428.84C210.183 429.48 210.957 429.8 211.903 429.8C212.85 429.8 213.617 429.48 214.203 428.84C214.803 428.187 215.103 427.267 215.103 426.08C215.103 424.88 214.803 423.96 214.203 423.32ZM218.668 421.14H218.788C219.294 421.14 219.548 421.387 219.548 421.88V422.96C219.774 422.453 220.134 422 220.628 421.6C221.134 421.2 221.674 421 222.248 421C222.821 421 223.254 421.113 223.548 421.34C223.854 421.567 224.008 421.847 224.008 422.18C224.008 422.5 223.868 422.753 223.588 422.94C223.174 422.593 222.734 422.42 222.268 422.42C221.441 422.42 220.788 422.76 220.308 423.44C219.828 424.107 219.588 424.947 219.588 425.96V430.24C219.588 430.507 219.528 430.7 219.408 430.82C219.288 430.94 219.094 431 218.828 431H218.668C218.401 431 218.208 430.94 218.088 430.82C217.968 430.7 217.908 430.507 217.908 430.24V421.88C217.908 421.387 218.161 421.14 218.668 421.14ZM230.833 428.18C229.833 428.18 229.026 427.853 228.413 427.2C227.813 426.547 227.513 425.633 227.513 424.46C227.513 423.273 227.839 422.367 228.493 421.74C229.146 421.1 229.933 420.78 230.853 420.78C231.786 420.78 232.559 420.887 233.173 421.1C233.786 421.313 234.093 421.667 234.093 422.16V425.96C234.093 426.24 234.166 426.453 234.313 426.6C234.473 426.747 234.673 426.82 234.913 426.82C235.779 426.82 236.213 425.973 236.213 424.28C236.213 422.587 235.713 421.26 234.713 420.3C233.726 419.34 232.546 418.86 231.173 418.86C229.813 418.86 228.633 419.34 227.633 420.3C226.646 421.26 226.153 422.613 226.153 424.36C226.153 426.107 226.613 427.473 227.533 428.46C228.466 429.447 229.599 429.94 230.933 429.94C232.493 429.94 233.386 429.553 233.613 428.78C234.066 428.847 234.293 429.107 234.293 429.56C234.293 430 233.999 430.407 233.413 430.78C232.826 431.14 231.986 431.32 230.893 431.32C229.079 431.32 227.566 430.707 226.353 429.48C225.139 428.253 224.533 426.547 224.533 424.36C224.533 422.88 224.859 421.6 225.513 420.52C226.166 419.427 226.986 418.627 227.973 418.12C228.959 417.613 229.953 417.36 230.953 417.36C231.953 417.36 232.846 417.513 233.633 417.82C234.419 418.113 235.126 418.547 235.753 419.12C236.379 419.68 236.879 420.413 237.253 421.32C237.639 422.227 237.833 423.28 237.833 424.48C237.833 425.68 237.546 426.6 236.973 427.24C236.413 427.88 235.706 428.2 234.853 428.2C234.346 428.2 233.919 428.1 233.573 427.9C233.239 427.7 233.013 427.5 232.893 427.3C232.706 427.553 232.419 427.767 232.033 427.94C231.659 428.1 231.259 428.18 230.833 428.18ZM232.593 426.16V422.36C232.166 422.187 231.646 422.1 231.033 422.1C230.433 422.1 229.946 422.293 229.573 422.68C229.199 423.053 229.013 423.653 229.013 424.48C229.013 425.293 229.193 425.9 229.553 426.3C229.913 426.687 230.406 426.88 231.033 426.88C231.353 426.88 231.639 426.833 231.893 426.74C232.146 426.633 232.326 426.527 232.433 426.42C232.539 426.313 232.593 426.227 232.593 426.16ZM242.661 428.14L241.761 428.1C241.441 428.1 241.168 428.187 240.941 428.36C240.715 428.52 240.601 428.7 240.601 428.9C240.601 429.407 241.028 429.66 241.881 429.66H243.361C246.201 429.66 247.621 430.533 247.621 432.28C247.621 433.2 247.175 433.947 246.281 434.52C245.401 435.093 244.268 435.407 242.881 435.46H242.401C241.268 435.46 240.301 435.233 239.501 434.78C238.701 434.327 238.301 433.793 238.301 433.18C238.301 432.887 238.368 432.653 238.501 432.48C238.648 432.307 238.835 432.207 239.061 432.18C239.315 432.7 239.761 433.133 240.401 433.48C241.041 433.827 241.795 434 242.661 434H242.801C243.801 434 244.581 433.847 245.141 433.54C245.715 433.233 246.001 432.847 246.001 432.38C246.001 431.927 245.748 431.593 245.241 431.38C244.748 431.18 243.888 431.08 242.661 431.08C241.448 431.08 240.535 430.96 239.921 430.72C239.308 430.48 239.001 430.013 239.001 429.32C239.001 428.627 239.488 428.08 240.461 427.68C239.301 427.027 238.721 425.987 238.721 424.56C238.721 423.427 239.108 422.547 239.881 421.92C240.655 421.293 241.608 420.98 242.741 420.98C243.315 420.98 243.841 421.1 244.321 421.34C244.815 421.58 245.188 421.84 245.441 422.12C245.948 421.787 246.201 421.18 246.201 420.3C246.561 420.3 246.881 420.413 247.161 420.64C247.441 420.853 247.581 421.127 247.581 421.46C247.581 422.127 247.088 422.607 246.101 422.9C246.395 423.3 246.541 423.887 246.541 424.66C246.541 425.793 246.168 426.66 245.421 427.26C244.688 427.847 243.768 428.14 242.661 428.14ZM244.341 422.84C243.901 422.453 243.341 422.26 242.661 422.26C241.981 422.26 241.415 422.453 240.961 422.84C240.508 423.213 240.281 423.793 240.281 424.58C240.281 425.367 240.508 425.953 240.961 426.34C241.415 426.713 241.981 426.9 242.661 426.9C243.341 426.9 243.901 426.713 244.341 426.34C244.795 425.953 245.021 425.367 245.021 424.58C245.021 423.793 244.795 423.213 244.341 422.84ZM249.228 421.14H249.348C249.868 421.14 250.128 421.393 250.128 421.9V422.74C250.741 421.58 251.681 421 252.948 421C253.761 421 254.434 421.22 254.968 421.66C255.514 422.087 255.888 422.687 256.088 423.46C256.301 422.687 256.694 422.08 257.268 421.64C257.841 421.2 258.501 420.98 259.248 420.98C261.541 420.98 262.688 422.32 262.688 425V430.26C262.688 430.753 262.421 431 261.888 431H261.768C261.261 431 261.008 430.753 261.008 430.26V425.1C261.008 423.273 260.314 422.36 258.928 422.36C257.954 422.36 257.288 422.713 256.928 423.42C256.581 424.127 256.408 425.087 256.408 426.3V430.26C256.408 430.753 256.148 431 255.628 431H255.488C254.981 431 254.728 430.753 254.728 430.26V425.1C254.728 423.273 254.028 422.36 252.628 422.36C250.961 422.36 250.128 423.653 250.128 426.24V430.26C250.128 430.753 249.868 431 249.348 431H249.228C248.721 431 248.468 430.753 248.468 430.26V421.9C248.468 421.393 248.721 421.14 249.228 421.14ZM267.701 420.98C270.528 420.98 271.941 422.293 271.941 424.92V428.88C271.941 429.613 272.221 430.08 272.781 430.28C272.581 430.787 272.208 431.04 271.661 431.04C271.261 431.04 270.941 430.9 270.701 430.62C270.475 430.327 270.361 429.947 270.361 429.48C269.521 430.6 268.435 431.16 267.101 431.16C266.021 431.16 265.168 430.887 264.541 430.34C263.928 429.78 263.621 429.033 263.621 428.1C263.621 427.153 263.981 426.387 264.701 425.8C265.435 425.213 266.421 424.92 267.661 424.92C268.408 424.92 269.035 425 269.541 425.16C269.955 425.307 270.201 425.4 270.281 425.44V424.56C270.281 423.747 270.075 423.173 269.661 422.84C269.248 422.493 268.621 422.32 267.781 422.32C266.595 422.32 265.675 422.773 265.021 423.68C264.461 423.6 264.181 423.34 264.181 422.9C264.181 422.393 264.528 421.947 265.221 421.56C265.915 421.173 266.741 420.98 267.701 420.98ZM270.281 426.72C269.441 426.347 268.615 426.16 267.801 426.16C266.988 426.16 266.361 426.333 265.921 426.68C265.481 427.027 265.261 427.48 265.261 428.04C265.261 428.587 265.448 429.027 265.821 429.36C266.208 429.68 266.768 429.84 267.501 429.84C268.248 429.84 268.895 429.573 269.441 429.04C270.001 428.507 270.281 427.86 270.281 427.1V426.72ZM274.785 421.14H274.905C275.412 421.14 275.665 421.387 275.665 421.88V430.24C275.665 430.747 275.412 431 274.905 431H274.785C274.278 431 274.025 430.747 274.025 430.24V421.88C274.025 421.387 274.278 421.14 274.785 421.14ZM273.745 418.32C273.745 418.013 273.852 417.753 274.065 417.54C274.278 417.313 274.532 417.2 274.825 417.2C275.132 417.2 275.392 417.313 275.605 417.54C275.832 417.753 275.945 418.013 275.945 418.32C275.945 418.613 275.838 418.873 275.625 419.1C275.412 419.313 275.152 419.42 274.845 419.42C274.538 419.42 274.278 419.313 274.065 419.1C273.852 418.887 273.745 418.627 273.745 418.32ZM278.599 416.98H278.739C279.246 416.98 279.499 417.227 279.499 417.72V430.24C279.499 430.747 279.246 431 278.739 431H278.599C278.319 431 278.119 430.94 277.999 430.82C277.893 430.7 277.839 430.507 277.839 430.24V417.72C277.839 417.453 277.893 417.267 277.999 417.16C278.119 417.04 278.319 416.98 278.599 416.98ZM281.184 429.86C281.184 429.473 281.31 429.16 281.564 428.92C281.817 428.68 282.124 428.56 282.484 428.56C282.857 428.56 283.17 428.68 283.424 428.92C283.677 429.16 283.804 429.473 283.804 429.86C283.804 430.247 283.677 430.56 283.424 430.8C283.17 431.04 282.857 431.16 282.484 431.16C282.124 431.16 281.817 431.04 281.564 430.8C281.31 430.56 281.184 430.247 281.184 429.86ZM286.318 422.1C286.812 421.713 287.338 421.427 287.898 421.24C288.458 421.053 289.138 420.96 289.938 420.96C290.738 420.96 291.438 421.14 292.038 421.5C292.652 421.86 292.958 422.247 292.958 422.66C292.958 423.167 292.672 423.453 292.098 423.52C291.965 423.227 291.665 422.96 291.198 422.72C290.732 422.467 290.178 422.34 289.538 422.34C288.645 422.34 287.905 422.66 287.318 423.3C286.732 423.927 286.438 424.847 286.438 426.06C286.438 427.273 286.738 428.2 287.338 428.84C287.938 429.48 288.658 429.8 289.498 429.8C290.832 429.8 291.732 429.367 292.198 428.5C292.452 428.5 292.665 428.58 292.838 428.74C293.012 428.887 293.098 429.08 293.098 429.32C293.098 429.787 292.778 430.213 292.138 430.6C291.498 430.973 290.765 431.16 289.938 431.16C289.125 431.16 288.432 431.067 287.858 430.88C287.298 430.68 286.778 430.387 286.298 430C285.818 429.6 285.438 429.067 285.158 428.4C284.878 427.733 284.738 426.96 284.738 426.08C284.738 425.187 284.878 424.4 285.158 423.72C285.452 423.027 285.838 422.487 286.318 422.1ZM294.861 422.3C295.807 421.407 296.967 420.96 298.341 420.96C299.714 420.96 300.874 421.407 301.821 422.3C302.767 423.193 303.241 424.453 303.241 426.08C303.241 427.707 302.767 428.96 301.821 429.84C300.874 430.72 299.714 431.16 298.341 431.16C296.967 431.16 295.807 430.72 294.861 429.84C293.914 428.96 293.441 427.707 293.441 426.08C293.441 424.453 293.914 423.193 294.861 422.3ZM300.641 423.32C300.054 422.667 299.287 422.34 298.341 422.34C297.394 422.34 296.621 422.667 296.021 423.32C295.434 423.96 295.141 424.88 295.141 426.08C295.141 427.267 295.434 428.187 296.021 428.84C296.621 429.48 297.394 429.8 298.341 429.8C299.287 429.8 300.054 429.48 300.641 428.84C301.241 428.187 301.541 427.267 301.541 426.08C301.541 424.88 301.241 423.96 300.641 423.32ZM305.105 421.14H305.225C305.745 421.14 306.005 421.393 306.005 421.9V422.74C306.618 421.58 307.558 421 308.825 421C309.638 421 310.312 421.22 310.845 421.66C311.392 422.087 311.765 422.687 311.965 423.46C312.178 422.687 312.572 422.08 313.145 421.64C313.718 421.2 314.378 420.98 315.125 420.98C317.418 420.98 318.565 422.32 318.565 425V430.26C318.565 430.753 318.298 431 317.765 431H317.645C317.138 431 316.885 430.753 316.885 430.26V425.1C316.885 423.273 316.192 422.36 314.805 422.36C313.832 422.36 313.165 422.713 312.805 423.42C312.458 424.127 312.285 425.087 312.285 426.3V430.26C312.285 430.753 312.025 431 311.505 431H311.365C310.858 431 310.605 430.753 310.605 430.26V425.1C310.605 423.273 309.905 422.36 308.505 422.36C306.838 422.36 306.005 423.653 306.005 426.24V430.26C306.005 430.753 305.745 431 305.225 431H305.105C304.598 431 304.345 430.753 304.345 430.26V421.9C304.345 421.393 304.598 421.14 305.105 421.14Z" fill="#272735"/>
</svg>
